<svg preserveAspectRatio="none" width="100%" height="100%" overflow="visible" style="display: block;" viewBox="0 0 12 12" fill="none" xmlns="http://www.w3.org/2000/svg">
<g id="Icon">
<path id="Vector" d="M10.3903 6.26531L7.01531 9.64031C6.94495 9.71068 6.84951 9.75021 6.75 9.75021C6.65049 9.75021 6.55505 9.71068 6.48469 9.64031C6.41432 9.56995 6.37479 9.47451 6.37479 9.375C6.37479 9.27549 6.41432 9.18005 6.48469 9.10969L9.21984 6.375H1.875C1.77554 6.375 1.68016 6.33549 1.60984 6.26517C1.53951 6.19484 1.5 6.09946 1.5 6C1.5 5.90054 1.53951 5.80516 1.60984 5.73484C1.68016 5.66451 1.77554 5.625 1.875 5.625H9.21984L6.48469 2.89031C6.41432 2.81995 6.37479 2.72451 6.37479 2.625C6.37479 2.52549 6.41432 2.43005 6.48469 2.35969C6.55505 2.28932 6.65049 2.24979 6.75 2.24979C6.84951 2.24979 6.94495 2.28932 7.01531 2.35969L10.3903 5.73469C10.4252 5.76951 10.4528 5.81087 10.4717 5.8564C10.4906 5.90192 10.5003 5.95072 10.5003 6C10.5003 6.04928 10.4906 6.09808 10.4717 6.1436C10.4528 6.18913 10.4252 6.23049 10.3903 6.26531Z" fill="var(--fill-0, #3D1719)"/>
</g>
</svg>
