<svg preserveAspectRatio="none" width="100%" height="100%" overflow="visible" style="display: block;" viewBox="0 0 18.378 18.378" fill="none" xmlns="http://www.w3.org/2000/svg">
<g id="Icon">
<path id="Vector" d="M16.0808 9.18902C16.0808 9.34134 16.0203 9.48742 15.9126 9.59512C15.8049 9.70283 15.6588 9.76333 15.5065 9.76333H9.76333V15.5065C9.76333 15.6588 9.70283 15.8049 9.59512 15.9126C9.48742 16.0203 9.34134 16.0808 9.18902 16.0808C9.0367 16.0808 8.89062 16.0203 8.78292 15.9126C8.67521 15.8049 8.61471 15.6588 8.61471 15.5065V9.76333H2.87157C2.71925 9.76333 2.57317 9.70283 2.46547 9.59512C2.35776 9.48742 2.29726 9.34134 2.29726 9.18902C2.29726 9.0367 2.35776 8.89062 2.46547 8.78292C2.57317 8.67521 2.71925 8.61471 2.87157 8.61471H8.61471V2.87157C8.61471 2.71925 8.67521 2.57317 8.78292 2.46547C8.89062 2.35776 9.0367 2.29726 9.18902 2.29726C9.34134 2.29726 9.48742 2.35776 9.59512 2.46547C9.70283 2.57317 9.76333 2.71925 9.76333 2.87157V8.61471H15.5065C15.6588 8.61471 15.8049 8.67521 15.9126 8.78292C16.0203 8.89062 16.0808 9.0367 16.0808 9.18902Z" fill="var(--fill-0, #F8F7F2)"/>
</g>
</svg>
