<svg preserveAspectRatio="none" width="100%" height="100%" overflow="visible" style="display: block;" viewBox="0 0 345 67" fill="none" xmlns="http://www.w3.org/2000/svg">
<g id="wordmark">
<path id="Vector" d="M10.4174 0.422852L10.4873 27.8482H12.7021L31.4229 10.2301H43.234V11.5531L21.42 32.1186L44.1026 54.2521V55.5751H31.6443L12.695 37.315H10.4802V55.5505H1.20648e-05L0 0.422852H10.4174Z" fill="var(--fill-0, #F57E56)"/>
<path id="Vector_2" d="M61.1381 9.13477C74.5207 9.13477 82.3498 17.3888 82.3498 31.0597V35.7122H48.4737C48.6443 43.3121 53.3588 48.6334 61.0954 48.6334C68.832 48.6334 71.9324 44.5909 72.615 41.1659H81.4538V42.4889C80.2663 48.4203 74.8194 56.6302 61.2234 56.6302C47.6275 56.6302 38.8242 48.5011 38.8242 32.8678C38.8242 17.2344 47.663 9.14947 61.1381 9.14947V9.13477ZM72.8639 27.9727C72.7785 21.784 68.7893 17.0286 61.0101 17.0286C53.2308 17.0286 49.1563 21.909 48.6016 27.9727H72.871H72.8639Z" fill="var(--fill-0, #F57E56)"/>
<path id="Vector_3" d="M91.2783 10.1956L103.687 43.6746H104.362L116.728 10.1956H126.847V11.5186L104.715 66.9998H94.5958V65.6768L98.6665 55.6624L80.8965 11.5113V10.1883H91.2783V10.1956Z" fill="var(--fill-0, #F57E56)"/>
<path id="Vector_4" d="M146.353 9.18741C158.427 9.18741 165.474 14.3691 166.199 22.851V24.174H157.019C156.72 18.8526 152.475 17.0151 146.395 17.0151C140.316 17.0151 137.045 18.86 137.045 22.3806C137.045 25.9012 139.768 27.0331 143.636 27.6505L151.963 28.9735C160.802 30.3847 166.789 34.1111 166.789 42.3725C166.789 50.6338 160.418 56.602 147.583 56.602C134.748 56.602 127.31 50.6264 126.67 42.5856V41.2626H136.021C136.447 46.584 141.212 48.7743 147.583 48.7743C153.954 48.7743 157.19 46.4884 157.19 42.931C157.19 39.3737 154.424 37.9625 149.716 37.2201L141.389 35.8971C133.063 34.5742 127.488 30.8036 127.488 22.5937C127.488 14.3838 134.328 9.19476 146.36 9.19476H146.353V9.18741Z" fill="var(--fill-0, #F57E56)"/>
<path id="Vector_5" d="M179.883 10.1917V0.000167983H189.959V10.1917H206.492V18.2325H189.959V46.2653L190.635 46.9635H206.229V55.5703H191.993C184.385 55.5703 179.876 51.5278 179.876 43.803V18.2325H166.785V10.1917H179.876H179.883Z" fill="var(--fill-0, #F57E56)"/>
<path id="Vector_6" d="M229.617 9.13477C243.263 9.13477 252.785 17.4843 252.785 32.8531C252.785 48.2218 243.263 56.6155 229.617 56.6155C215.972 56.6155 206.5 48.2659 206.5 32.8531C206.5 17.4402 215.972 9.13477 229.617 9.13477ZM229.617 48.4938C237.518 48.4938 242.58 42.9152 242.58 32.8531C242.58 22.791 237.525 17.2565 229.617 17.2565C221.71 17.2565 216.697 22.8351 216.697 32.8531C216.697 42.8711 221.753 48.4938 229.617 48.4938Z" fill="var(--fill-0, #F57E56)"/>
<path id="Vector_7" d="M266.226 10.2097V15.2591H266.902C269.959 10.952 274.887 9.23947 280.846 9.23947C291.256 9.23947 297.72 14.7299 297.72 25.9312V55.5809H287.644V26.85C287.644 20.5216 284.288 17.5817 278.293 17.5817C271.794 17.5817 266.56 21.4036 266.56 30.2309V55.5736H256.484V10.2097H266.219H266.226Z" fill="var(--fill-0, #F57E56)"/>
<path id="Vector_8" d="M323.788 9.13477C337.171 9.13477 345 17.3888 345 31.0597V35.7122H311.124C311.288 43.3121 316.009 48.6334 323.746 48.6334C331.482 48.6334 334.583 44.5909 335.265 41.1659H344.104V42.4889C342.917 48.4203 337.47 56.6302 323.874 56.6302C310.278 56.6302 301.475 48.5011 301.475 32.8678C301.475 17.2344 310.313 9.14947 323.788 9.14947V9.13477ZM335.514 27.9727C335.429 21.784 331.44 17.0286 323.66 17.0286C315.881 17.0286 311.807 21.909 311.252 27.9727H335.521H335.514Z" fill="var(--fill-0, #F57E56)"/>
</g>
</svg>
