<svg preserveAspectRatio="none" width="100%" height="100%" overflow="visible" style="display: block;" viewBox="0 0 39 40" fill="none" xmlns="http://www.w3.org/2000/svg">
<g id="Frame 2147238381">
<path id="Exclude" d="M39 40H0V0H39V40ZM28.875 15.2852C26.2676 15.2852 24.4922 17.3681 24.4922 19.7471V19.7715C24.4922 22.1506 26.2429 24.209 28.8506 24.209C31.458 24.209 33.2334 22.126 33.2334 19.7471V19.7227C33.2334 17.344 31.4827 15.2852 28.875 15.2852ZM5.49512 15.4668L8.68652 19.6602L5.37109 24.0264H6.49707L9.26758 20.333L12.0391 24.0264H13.2021L9.88672 19.6602L13.0781 15.4668H11.9404L9.29297 18.9883L6.64551 15.4668H5.49512ZM18.8271 15.2842C17.3156 15.2842 16.5047 15.9619 15.7305 17.1191L16.4434 17.6357C17.1313 16.6757 17.7701 16.1583 18.7529 16.1582C19.6869 16.1582 20.4863 16.799 20.4863 17.8086C20.4863 18.6705 20.0063 19.3355 18.6914 20.5176L15.5703 23.2754V24.0264H21.5801V23.1396H17.0205L19.3184 21.0957C20.8299 19.7785 21.4941 19.0029 21.4941 17.7471V17.7227C21.4941 16.319 20.3755 15.2842 18.8271 15.2842ZM28.8506 16.1846C30.8092 16.1846 32.2295 17.7871 32.2295 19.7471V19.7715C32.2295 21.7314 30.8339 23.3095 28.875 23.3096C26.9164 23.3096 25.4961 21.7067 25.4961 19.7471V19.7227C25.4961 17.7629 26.8917 16.1846 28.8506 16.1846ZM28.8613 18.9277C28.4589 18.9277 28.1328 19.2944 28.1328 19.7471C28.1328 20.1994 28.4589 20.5664 28.8613 20.5664C29.2636 20.5663 29.5898 20.1993 29.5898 19.7471C29.5898 19.2945 29.2636 18.9279 28.8613 18.9277Z" fill="var(--fill-0, #4F4D4A)"/>
</g>
</svg>
