<svg preserveAspectRatio="none" width="100%" height="100%" overflow="visible" style="display: block;" viewBox="0 0 36.7715 37.7139" fill="none" xmlns="http://www.w3.org/2000/svg">
<g id="Frame 2147238381">
<path id="Exclude" d="M36.7715 37.7139H0V0H36.7715V37.7139ZM27.8564 14.7236C25.3392 14.7238 23.6252 16.7345 23.625 19.0312V19.0557C23.6252 21.3526 25.3154 23.3397 27.833 23.3398C30.3506 23.3398 32.0654 21.3282 32.0654 19.0312V19.0078C32.0654 16.7111 30.3743 14.7236 27.8564 14.7236ZM5.2832 14.8984L8.36523 18.9482L5.16406 23.1631H6.25098L8.92676 19.5977L11.6025 23.1631H12.7246L9.52344 18.9482L12.6055 14.8984H11.5068L8.9502 18.2988L6.39453 14.8984H5.2832ZM18.1562 14.7227C16.6967 14.7227 15.9136 15.3766 15.166 16.4941L15.8545 16.9932C16.5189 16.0658 17.1357 15.5664 18.085 15.5664C18.9866 15.5664 19.7576 16.1845 19.7578 17.1592C19.7578 17.9914 19.295 18.634 18.0254 19.7754L15.0117 22.4375V23.1631H20.8145V22.3066H16.4121L18.6309 20.334C20.0904 19.0621 20.7314 18.3123 20.7314 17.0996V17.0762C20.7314 15.7209 19.6513 14.7227 18.1562 14.7227ZM27.833 15.5918C29.724 15.5918 31.0955 17.1389 31.0957 19.0312V19.0557C31.0955 20.9479 29.7477 22.4707 27.8564 22.4707C25.9655 22.4705 24.5947 20.9233 24.5947 19.0312V19.0078C24.5947 17.1157 25.9417 15.592 27.833 15.5918ZM27.8438 18.2393C27.4553 18.2394 27.1406 18.5943 27.1406 19.0312C27.1407 19.4679 27.4554 19.8221 27.8438 19.8223C28.2322 19.8223 28.5468 19.468 28.5469 19.0312C28.5469 18.5942 28.2323 18.2393 27.8438 18.2393Z" fill="var(--fill-0, #4F4D4A)"/>
</g>
</svg>
