<svg preserveAspectRatio="none" width="100%" height="100%" overflow="visible" style="display: block;" viewBox="0 0 1389.5 268.297" fill="none" xmlns="http://www.w3.org/2000/svg">
<g id="Group 2147258281">
<path id="Vector" d="M41.9566 1.69531L42.2381 111.519H51.1583L126.557 40.9682H174.127V46.2661L86.27 128.62L177.625 217.253V222.551H127.449L51.1296 149.429H42.2094V222.452H4.85914e-05L0 1.69531H41.9566Z" fill="var(--fill-0, #F57E56)"/>
<path id="Vector_2" d="M246.237 36.5781C300.136 36.5781 331.668 69.631 331.668 124.376V143.007H195.231C195.918 173.44 214.906 194.749 246.065 194.749C277.225 194.749 289.712 178.561 292.461 164.846H328.06V170.143C323.277 193.896 301.339 226.772 246.581 226.772C191.823 226.772 156.367 194.219 156.367 131.616C156.367 69.0129 191.966 36.637 246.237 36.637V36.5781ZM293.463 112.014C293.12 87.2317 277.053 68.1888 245.722 68.1888C214.39 68.1888 197.98 87.7321 195.746 112.014H293.492H293.463Z" fill="var(--fill-0, #F57E56)"/>
<path id="Vector_3" d="M367.622 40.8263L417.598 174.892H420.318L470.122 40.8263H510.876V46.1242L421.737 268.297H380.983V262.999L397.378 222.897L325.809 46.0948V40.7969H367.622V40.8263Z" fill="var(--fill-0, #F57E56)"/>
<path id="Vector_4" d="M589.442 36.7891C638.071 36.7891 666.452 57.5391 669.374 91.5043V96.8022H632.4C631.198 75.493 614.1 68.1348 589.613 68.1348C565.127 68.1348 551.953 75.5224 551.953 89.6206C551.953 103.719 562.922 108.252 578.501 110.724L612.038 116.022C647.637 121.673 671.751 136.595 671.751 169.677C671.751 202.76 646.09 226.659 594.396 226.659C542.702 226.659 512.746 202.73 510.168 170.531V165.233H547.829C549.547 186.542 568.735 195.313 594.396 195.313C620.057 195.313 633.088 186.16 633.088 171.914C633.088 157.669 621.947 152.018 602.988 149.045L569.451 143.747C535.915 138.449 513.462 123.35 513.462 90.4742C513.462 57.5979 541.012 36.8185 589.47 36.8185H589.442V36.7891Z" fill="var(--fill-0, #F57E56)"/>
<path id="Vector_5" d="M724.488 40.8123V0.000672684H765.07V40.8123H831.656V73.0116H765.07V185.268L767.791 188.064H830.596V222.529H773.261C742.617 222.529 724.459 206.341 724.459 175.408V73.0116H671.734V40.8123H724.459H724.488Z" fill="var(--fill-0, #F57E56)"/>
<path id="Vector_6" d="M924.798 36.5781C979.757 36.5781 1018.1 70.0136 1018.1 131.557C1018.1 193.101 979.757 226.713 924.798 226.713C869.839 226.713 831.691 193.278 831.691 131.557C831.691 69.837 869.839 36.5781 924.798 36.5781ZM924.798 194.19C956.616 194.19 977.007 171.851 977.007 131.557C977.007 91.264 956.645 69.1012 924.798 69.1012C892.951 69.1012 872.76 91.4406 872.76 131.557C872.76 171.674 893.123 194.19 924.798 194.19Z" fill="var(--fill-0, #F57E56)"/>
<path id="Vector_7" d="M1072.24 40.8851V61.1053H1074.96C1087.28 43.8578 1107.12 37 1131.12 37C1173.05 37 1199.08 58.9862 1199.08 103.842V222.573H1158.5V107.521C1158.5 82.1791 1144.98 70.4061 1120.84 70.4061C1094.66 70.4061 1073.59 85.711 1073.59 121.06V222.543H1033V40.8851H1072.21H1072.24Z" fill="var(--fill-0, #F57E56)"/>
<path id="Vector_8" d="M1304.07 36.5781C1357.97 36.5781 1389.5 69.631 1389.5 124.376V143.007H1253.06C1253.72 173.44 1272.74 194.749 1303.9 194.749C1335.06 194.749 1347.54 178.561 1350.29 164.846H1385.89V170.143C1381.11 193.896 1359.17 226.772 1304.41 226.772C1249.65 226.772 1214.2 194.219 1214.2 131.616C1214.2 69.0129 1249.8 36.637 1304.07 36.637V36.5781ZM1351.3 112.014C1350.95 87.2317 1334.89 68.1888 1303.55 68.1888C1272.22 68.1888 1255.81 87.7321 1253.58 112.014H1351.32H1351.3Z" fill="var(--fill-0, #F57E56)"/>
</g>
</svg>
