<svg preserveAspectRatio="none" width="100%" height="100%" overflow="visible" style="display: block;" viewBox="0 0 16 16" fill="none" xmlns="http://www.w3.org/2000/svg">
<g id="vector">
<path fill-rule="evenodd" clip-rule="evenodd" d="M5.09238 5.09238C5.86353 4.32123 6.90943 3.888 8 3.888C9.09057 3.888 10.1365 4.32123 10.9076 5.09238C11.6788 5.86353 12.112 6.90943 12.112 8C12.112 9.09057 11.6788 10.1365 10.9076 10.9076C10.1365 11.6788 9.09057 12.112 8 12.112C6.90943 12.112 5.86353 11.6788 5.09238 10.9076C4.32123 10.1365 3.888 9.09057 3.888 8C3.888 6.90943 4.32123 5.86353 5.09238 5.09238ZM6.97849 10.4661C7.30235 10.6003 7.64946 10.6693 8 10.6693C8.70795 10.6693 9.38691 10.3881 9.8875 9.88751C10.3881 9.38691 10.6693 8.70795 10.6693 8C10.6693 7.29205 10.3881 6.6131 9.8875 6.1125C9.38691 5.6119 8.70795 5.33067 8 5.33067C7.64946 5.33067 7.30235 5.39971 6.97849 5.53386C6.65463 5.66801 6.36037 5.86463 6.1125 6.1125C5.86463 6.36037 5.668 6.65463 5.53386 6.97849C5.39971 7.30235 5.33067 7.64946 5.33067 8C5.33067 8.35054 5.39971 8.69765 5.53386 9.02151C5.668 9.34537 5.86463 9.63964 6.1125 9.88751C6.36037 10.1354 6.65463 10.332 6.97849 10.4661Z" fill="var(--fill-0, #3D1719)"/>
<path d="M13.0236 4.50064C13.2059 4.31836 13.3083 4.07113 13.3083 3.81334C13.3083 3.55555 13.2059 3.30831 13.0236 3.12603C12.8413 2.94374 12.5941 2.84134 12.3363 2.84134C12.0785 2.84134 11.8312 2.94374 11.649 3.12603C11.4667 3.30831 11.3643 3.55555 11.3643 3.81334C11.3643 4.07113 11.4667 4.31836 11.649 4.50064C11.8312 4.68293 12.0785 4.78534 12.3363 4.78534C12.5941 4.78534 12.8413 4.68293 13.0236 4.50064Z" fill="var(--fill-0, #3D1719)"/>
<path fill-rule="evenodd" clip-rule="evenodd" d="M4.70187 0.0479999C5.5552 0.00906669 5.8272 0 8 0C10.1733 0 10.4448 0.0095999 11.2976 0.0479999C12.1493 0.0869333 12.7317 0.222933 13.2405 0.419733C13.7741 0.620724 14.2575 0.935585 14.6571 1.3424C15.064 1.74204 15.3789 2.22563 15.5797 2.75947C15.7776 3.26827 15.9131 3.85013 15.952 4.70187C15.9909 5.5552 16 5.8272 16 8C16 10.1728 15.9909 10.4448 15.952 11.2981C15.9131 12.1499 15.7776 12.7317 15.5803 13.2405C15.3793 13.7741 15.0644 14.2575 14.6576 14.6571C14.2576 15.0645 13.7739 15.3792 13.2405 15.5797C12.7317 15.7776 12.1499 15.9131 11.2981 15.952C10.4448 15.9909 10.1728 16 8 16C5.8272 16 5.5552 15.9909 4.70187 15.952C3.85013 15.9131 3.26827 15.7776 2.75947 15.5803C2.22587 15.3793 1.74248 15.0644 1.34293 14.6576C0.935467 14.2576 0.6208 13.7739 0.420267 13.2405C0.2224 12.7317 0.0869333 12.1499 0.0479999 11.2981C0.00906669 10.4448 0 10.1733 0 8C0 5.82667 0.0095999 5.5552 0.0479999 4.7024C0.0869333 3.85067 0.222933 3.26827 0.419733 2.75947C0.620724 2.22586 0.935585 1.74247 1.3424 1.34293C1.7424 0.935467 2.22613 0.6208 2.75947 0.420267C3.26827 0.2224 3.85013 0.0869333 4.70187 0.0479999ZM11.2331 1.488C10.3893 1.4496 10.136 1.4416 8 1.4416C5.864 1.4416 5.61067 1.4496 4.76693 1.488C3.9872 1.52373 3.56373 1.65387 3.2816 1.76373C2.93409 1.89172 2.6197 2.09602 2.3616 2.3616C2.08213 2.6416 1.90827 2.90827 1.76373 3.2816C1.65333 3.56373 1.52373 3.9872 1.488 4.76693C1.4496 5.61067 1.4416 5.864 1.4416 8C1.4416 10.136 1.4496 10.3893 1.488 11.2331C1.52373 12.0128 1.65387 12.4363 1.76373 12.7184C1.8918 13.0659 2.09609 13.3802 2.3616 13.6384C2.61974 13.9039 2.93411 14.1082 3.2816 14.2363C3.56373 14.3467 3.9872 14.4763 4.76693 14.512C5.61067 14.5504 5.86347 14.5584 8 14.5584C10.1365 14.5584 10.3893 14.5504 11.2331 14.512C12.0128 14.4763 12.4363 14.3461 12.7184 14.2363C13.0659 14.1083 13.3803 13.904 13.6384 13.6384C13.9039 13.3803 14.1082 13.0659 14.2363 12.7184C14.3467 12.4363 14.4763 12.0128 14.512 11.2331C14.5504 10.3893 14.5584 10.136 14.5584 8C14.5584 5.864 14.5504 5.61067 14.512 4.76693C14.4763 3.9872 14.3461 3.56373 14.2363 3.2816C14.0917 2.90827 13.9184 2.6416 13.6384 2.3616C13.3584 2.08213 13.0917 1.90827 12.7184 1.76373C12.4363 1.65333 12.0128 1.52373 11.2331 1.488Z" fill="var(--fill-0, #3D1719)"/>
</g>
</svg>
