<svg preserveAspectRatio="none" width="100%" height="100%" overflow="visible" style="display: block;" viewBox="0 0 154 29.7357" fill="none" xmlns="http://www.w3.org/2000/svg">
<g id="Group 2147258281">
<path id="Vector" d="M4.6501 0.183201L4.6813 12.3551H5.66993L14.0265 4.53587H19.2987V5.12304L9.56141 14.2504L19.6864 24.0737V24.6609H14.1253L5.66676 16.5567H4.67812V24.6499H5.38544e-06L0 0.183201H4.6501Z" fill="var(--fill-0, #6ECC8B)"/>
<path id="Vector_2" d="M27.2905 4.05772C33.2642 4.05772 36.7589 7.721 36.7589 13.7884V15.8533H21.6374C21.7135 19.2263 23.818 21.588 27.2714 21.588C30.7249 21.588 32.1088 19.7939 32.4135 18.2738H36.359V18.8609C35.8289 21.4934 33.3975 25.1371 27.3286 25.1371C21.2596 25.1371 17.3301 21.5293 17.3301 14.5909C17.3301 7.6525 21.2755 4.06424 27.2905 4.06424V4.05772ZM32.5246 12.4184C32.4865 9.67171 30.7058 7.56116 27.2333 7.56116C23.7609 7.56116 21.9421 9.72717 21.6945 12.4184H32.5278H32.5246Z" fill="var(--fill-0, #6ECC8B)"/>
<path id="Vector_3" d="M40.7444 4.52483L46.2832 19.3835H46.5848L52.1046 4.52483H56.6214V5.112L46.742 29.7357H42.2252V29.1485L44.0423 24.7039L36.1102 5.10874V4.52157H40.7444V4.52483Z" fill="var(--fill-0, #6ECC8B)"/>
<path id="Vector_4" d="M65.329 4.07721C70.7186 4.07721 73.8642 6.37695 74.1879 10.1414V10.7285H70.0901C69.9568 8.36681 68.0619 7.55129 65.348 7.55129C62.6341 7.55129 61.174 8.37007 61.174 9.9326C61.174 11.4951 62.3897 11.9975 64.1164 12.2715L67.8333 12.8587C71.7788 13.485 74.4514 15.1388 74.4514 18.8054C74.4514 22.4719 71.6074 25.1207 65.8781 25.1207C60.1488 25.1207 56.8286 22.4687 56.543 18.9V18.3128H60.7169C60.9074 20.6745 63.0341 21.6466 65.8781 21.6466C68.7221 21.6466 70.1663 20.6321 70.1663 19.0533C70.1663 17.4745 68.9316 16.8482 66.8303 16.5187L63.1134 15.9315C59.3965 15.3443 56.908 13.6709 56.908 10.0272C56.908 6.38348 59.9615 4.08047 65.3321 4.08047H65.329V4.07721Z" fill="var(--fill-0, #6ECC8B)"/>
<path id="Vector_5" d="M80.2967 4.52327V7.45544e-05H84.7944V4.52327H92.1742V8.09196H84.7944V20.5334L85.0959 20.8433H92.0568V24.6632H85.7022C82.3059 24.6632 80.2935 22.8691 80.2935 19.4407V8.09196H74.4499V4.52327H80.2935H80.2967Z" fill="var(--fill-0, #6ECC8B)"/>
<path id="Vector_6" d="M102.497 4.05772C108.588 4.05772 112.838 7.76341 112.838 14.5844C112.838 21.4053 108.588 25.1306 102.497 25.1306C96.4055 25.1306 92.1776 21.4249 92.1776 14.5844C92.1776 7.74384 96.4055 4.05772 102.497 4.05772ZM102.497 21.526C106.023 21.526 108.283 19.0501 108.283 14.5844C108.283 10.1186 106.026 7.66229 102.497 7.66229C98.967 7.66229 96.7293 10.1382 96.7293 14.5844C96.7293 19.0306 98.9861 21.526 102.497 21.526Z" fill="var(--fill-0, #6ECC8B)"/>
<path id="Vector_7" d="M118.838 4.52729V6.76832H119.139C120.504 4.85675 122.704 4.09669 125.364 4.09669C130.011 4.09669 132.896 6.53345 132.896 11.5048V24.664H128.398V11.9126C128.398 9.10395 126.9 7.79913 124.224 7.79913C121.323 7.79913 118.987 9.4954 118.987 13.4131V24.6607H114.489V4.52729H118.835H118.838Z" fill="var(--fill-0, #6ECC8B)"/>
<path id="Vector_8" d="M144.532 4.05772C150.505 4.05772 154 7.721 154 13.7884V15.8533H138.878C138.951 19.2263 141.059 21.588 144.513 21.588C147.966 21.588 149.35 19.7939 149.655 18.2738H153.6V18.8609C153.07 21.4934 150.639 25.1371 144.57 25.1371C138.501 25.1371 134.571 21.5293 134.571 14.5909C134.571 7.6525 138.517 4.06424 144.532 4.06424V4.05772ZM149.766 12.4184C149.728 9.67171 147.947 7.56116 144.474 7.56116C141.002 7.56116 139.183 9.72717 138.936 12.4184H149.769H149.766Z" fill="var(--fill-0, #6ECC8B)"/>
</g>
</svg>
