<svg preserveAspectRatio="none" width="100%" height="100%" overflow="visible" style="display: block;" viewBox="0 0 22 22" fill="none" xmlns="http://www.w3.org/2000/svg">
<g id="more_horiz">
<path id="Vector" d="M11 9C10.6044 9 10.2178 9.1173 9.88886 9.33706C9.55996 9.55682 9.30362 9.86918 9.15224 10.2346C9.00087 10.6001 8.96126 11.0022 9.03843 11.3902C9.1156 11.7781 9.30608 12.1345 9.58579 12.4142C9.86549 12.6939 10.2219 12.8844 10.6098 12.9616C10.9978 13.0387 11.3999 12.9991 11.7654 12.8478C12.1308 12.6964 12.4432 12.44 12.6629 12.1111C12.8827 11.7822 13 11.3956 13 11C13 10.4696 12.7893 9.96086 12.4142 9.58579C12.0391 9.21071 11.5304 9 11 9ZM4 9C3.60444 9 3.21776 9.1173 2.88886 9.33706C2.55996 9.55682 2.30362 9.86918 2.15224 10.2346C2.00087 10.6001 1.96126 11.0022 2.03843 11.3902C2.1156 11.7781 2.30608 12.1345 2.58579 12.4142C2.86549 12.6939 3.22186 12.8844 3.60982 12.9616C3.99778 13.0387 4.39992 12.9991 4.76537 12.8478C5.13082 12.6964 5.44318 12.44 5.66294 12.1111C5.8827 11.7822 6 11.3956 6 11C6 10.4696 5.78929 9.96086 5.41421 9.58579C5.03914 9.21071 4.53043 9 4 9ZM18 9C17.6044 9 17.2178 9.1173 16.8889 9.33706C16.56 9.55682 16.3036 9.86918 16.1522 10.2346C16.0009 10.6001 15.9613 11.0022 16.0384 11.3902C16.1156 11.7781 16.3061 12.1345 16.5858 12.4142C16.8655 12.6939 17.2219 12.8844 17.6098 12.9616C17.9978 13.0387 18.3999 12.9991 18.7654 12.8478C19.1308 12.6964 19.4432 12.44 19.6629 12.1111C19.8827 11.7822 20 11.3956 20 11C20 10.4696 19.7893 9.96086 19.4142 9.58579C19.0391 9.21071 18.5304 9 18 9Z" fill="var(--fill-0, white)"/>
</g>
</svg>
