<svg preserveAspectRatio="none" width="100%" height="100%" overflow="visible" style="display: block;" viewBox="0 0 12.3117 12.3117" fill="none" xmlns="http://www.w3.org/2000/svg">
<path id="Vector" d="M8.38485 3.92682C8.42887 3.9708 8.4638 4.02302 8.48763 4.0805C8.51146 4.13799 8.52372 4.1996 8.52372 4.26183C8.52372 4.32406 8.51146 4.38567 8.48763 4.44315C8.4638 4.50064 8.42887 4.55286 8.38485 4.59684L4.59677 8.38492C4.55277 8.42891 4.50054 8.46381 4.44306 8.48762C4.38558 8.51143 4.32398 8.52368 4.26176 8.52368C4.19954 8.52368 4.13793 8.51143 4.08045 8.48762C4.02297 8.46381 3.97074 8.42891 3.92675 8.38492C3.88276 8.34092 3.84786 8.28869 3.82405 8.23121C3.80024 8.17373 3.78799 8.11213 3.78799 8.04991C3.78799 7.98769 3.80024 7.92608 3.82405 7.8686C3.84786 7.81112 3.88276 7.75889 3.92675 7.7149L7.71483 3.92682C7.75881 3.8828 7.81103 3.84787 7.86851 3.82404C7.92599 3.80021 7.98761 3.78795 8.04984 3.78795C8.11206 3.78795 8.17368 3.80021 8.23116 3.82404C8.28865 3.84787 8.34087 3.8828 8.38485 3.92682ZM11.3407 0.970935C11.0329 0.663113 10.6675 0.418933 10.2654 0.252339C9.8632 0.085745 9.43216 0 8.99686 0C8.56155 0 8.13051 0.085745 7.72835 0.252339C7.32618 0.418933 6.96077 0.663113 6.65298 0.970935L4.87377 2.74956C4.78492 2.83841 4.73501 2.95891 4.73501 3.08456C4.73501 3.21022 4.78492 3.33072 4.87377 3.41957C4.96262 3.50842 5.08313 3.55834 5.20878 3.55834C5.33443 3.55834 5.45494 3.50842 5.54379 3.41957L7.323 1.64391C7.76862 1.20807 8.36814 0.965558 8.99146 0.968991C9.61477 0.972423 10.2116 1.22153 10.6524 1.66225C11.0932 2.10296 11.3424 2.69973 11.3459 3.32305C11.3495 3.94636 11.1071 4.54593 10.6713 4.99163L8.8915 6.77084C8.80265 6.85961 8.75271 6.98004 8.75265 7.10564C8.75259 7.23124 8.80243 7.35171 8.89121 7.44056C8.97998 7.52941 9.10041 7.57936 9.226 7.57941C9.3516 7.57947 9.47208 7.52963 9.56093 7.44086L11.3407 5.65868C11.6486 5.35089 11.8927 4.98548 12.0593 4.58332C12.2259 4.18115 12.3117 3.75011 12.3117 3.31481C12.3117 2.8795 12.2259 2.44846 12.0593 2.0463C11.8927 1.64414 11.6486 1.27873 11.3407 0.970935ZM6.76781 8.89157L4.9886 10.6708C4.76964 10.8947 4.50846 11.0729 4.22016 11.1951C3.93186 11.3173 3.62218 11.3812 3.30904 11.3829C2.9959 11.3846 2.68554 11.3242 2.39591 11.2051C2.10628 11.0861 1.84315 10.9108 1.62174 10.6893C1.40034 10.4679 1.22506 10.2047 1.10607 9.91507C0.987068 9.62542 0.926711 9.31504 0.928491 9.00191C0.930271 8.68877 0.994152 8.3791 1.11643 8.09082C1.23872 7.80255 1.41697 7.54139 1.64088 7.32248L3.4195 5.54386C3.50835 5.45501 3.55827 5.3345 3.55827 5.20885C3.55827 5.0832 3.50835 4.96269 3.4195 4.87384C3.33065 4.78499 3.21015 4.73507 3.08449 4.73507C2.95884 4.73507 2.83834 4.78499 2.74949 4.87384L0.970865 6.65305C0.34923 7.27469 0 8.1178 0 8.99693C0 9.87605 0.34923 10.7192 0.970865 11.3408C1.5925 11.9624 2.43562 12.3117 3.31474 12.3117C4.19386 12.3117 5.03698 11.9624 5.65861 11.3408L7.43783 9.561C7.5266 9.47215 7.57644 9.35167 7.57638 9.22607C7.57633 9.10048 7.52638 8.98005 7.43753 8.89128C7.34868 8.8025 7.22821 8.75266 7.10261 8.75272C6.97701 8.75278 6.85658 8.80272 6.76781 8.89157Z" fill="var(--fill-0, #4187D7)"/>
</svg>
