<svg preserveAspectRatio="xMidYMid meet" width="16.9714" height="3.77143" overflow="visible" style="display: block;" viewBox="0 0 16.9714 3.77143" fill="none" xmlns="http://www.w3.org/2000/svg">
<path id="Vector" d="M8.48571 0C8.11276 0 7.74817 0.110595 7.43807 0.3178C7.12796 0.525005 6.88627 0.819514 6.74354 1.16408C6.60082 1.50865 6.56347 1.88781 6.63623 2.2536C6.70899 2.61939 6.88859 2.95539 7.15231 3.21912C7.41604 3.48284 7.75204 3.66243 8.11783 3.7352C8.48362 3.80796 8.86278 3.77061 9.20735 3.62789C9.55192 3.48516 9.84642 3.24346 10.0536 2.93336C10.2608 2.62326 10.3714 2.25867 10.3714 1.88571C10.3714 1.38559 10.1728 0.905953 9.81912 0.552313C9.46548 0.198673 8.98584 0 8.48571 0ZM1.88572 0C1.51276 0 1.14817 0.110595 0.838068 0.3178C0.527964 0.525005 0.286268 0.819514 0.143542 1.16408C0.000817045 1.50865 -0.0365264 1.88781 0.0362343 2.2536C0.108995 2.61939 0.288592 2.95539 0.552314 3.21912C0.816035 3.48284 1.15204 3.66243 1.51783 3.7352C1.88362 3.80796 2.26278 3.77061 2.60735 3.62789C2.95192 3.48516 3.24642 3.24346 3.45363 2.93336C3.66083 2.62326 3.77143 2.25867 3.77143 1.88571C3.77143 1.38559 3.57276 0.905953 3.21912 0.552313C2.86548 0.198673 2.38584 0 1.88572 0ZM15.0857 0C14.7128 0 14.3482 0.110595 14.0381 0.3178C13.728 0.525005 13.4863 0.819514 13.3435 1.16408C13.2008 1.50865 13.1635 1.88781 13.2362 2.2536C13.309 2.61939 13.4886 2.95539 13.7523 3.21912C14.016 3.48284 14.352 3.66243 14.7178 3.7352C15.0836 3.80796 15.4628 3.77061 15.8073 3.62789C16.1519 3.48516 16.4464 3.24346 16.6536 2.93336C16.8608 2.62326 16.9714 2.25867 16.9714 1.88571C16.9714 1.38559 16.7728 0.905953 16.4191 0.552313C16.0655 0.198673 15.5858 0 15.0857 0Z" fill="var(--fill-0, #CBC5B4)"/>
</svg>
