<svg preserveAspectRatio="none" width="100%" height="100%" overflow="visible" style="display: block;" viewBox="0 0 12.2575 12.2575" fill="none" xmlns="http://www.w3.org/2000/svg">
<path id="Vector" d="M8.34799 3.90956C8.39182 3.95334 8.42659 4.00534 8.45032 4.06257C8.47404 4.1198 8.48625 4.18114 8.48625 4.2431C8.48625 4.30505 8.47404 4.36639 8.45032 4.42362C8.42659 4.48085 8.39182 4.53285 8.34799 4.57663L4.57656 8.34806C4.53276 8.39186 4.48076 8.4266 4.42353 8.45031C4.36631 8.47401 4.30497 8.48622 4.24303 8.48622C4.18108 8.48622 4.11975 8.47401 4.06252 8.45031C4.00529 8.4266 3.95329 8.39186 3.90949 8.34806C3.86569 8.30426 3.83094 8.25226 3.80724 8.19503C3.78354 8.1378 3.77133 8.07647 3.77133 8.01452C3.77133 7.95258 3.78354 7.89124 3.80724 7.83402C3.83094 7.77679 3.86569 7.72479 3.90949 7.68099L7.68092 3.90956C7.7247 3.86573 7.77669 3.83096 7.83392 3.80723C7.89116 3.78351 7.9525 3.7713 8.01445 3.7713C8.07641 3.7713 8.13775 3.78351 8.19498 3.80723C8.25221 3.83096 8.30421 3.86573 8.34799 3.90956ZM11.2909 0.966667C10.9844 0.660198 10.6206 0.417091 10.2202 0.25123C9.81985 0.0853681 9.3907 0 8.95731 0C8.52392 0 8.09477 0.0853681 7.69438 0.25123C7.29398 0.417091 6.93018 0.660198 6.62374 0.966667L4.85235 2.73747C4.76389 2.82593 4.71419 2.94591 4.71419 3.07101C4.71419 3.19611 4.76389 3.31608 4.85235 3.40454C4.94081 3.493 5.06078 3.5427 5.18588 3.5427C5.31098 3.5427 5.43096 3.493 5.51942 3.40454L7.29081 1.63668C7.73448 1.20276 8.33136 0.961314 8.95194 0.964731C9.57251 0.968149 10.1667 1.21616 10.6056 1.65494C11.0444 2.09372 11.2925 2.68787 11.2961 3.30844C11.2996 3.92901 11.0582 4.52594 10.6244 4.96968L8.85242 6.74108C8.76396 6.82946 8.71423 6.94936 8.71418 7.0744C8.71412 7.19945 8.76374 7.3194 8.85212 7.40785C8.9405 7.49631 9.06041 7.54604 9.18545 7.5461C9.3105 7.54615 9.43044 7.49653 9.5189 7.40815L11.2909 5.63381C11.5974 5.32737 11.8405 4.96357 12.0063 4.56317C12.1722 4.16278 12.2575 3.73363 12.2575 3.30024C12.2575 2.86685 12.1722 2.4377 12.0063 2.03731C11.8405 1.63691 11.5974 1.2731 11.2909 0.966667ZM6.73806 8.85249L4.96667 10.6239C4.74868 10.8468 4.48864 11.0242 4.20161 11.1459C3.91458 11.2676 3.60625 11.3311 3.2945 11.3328C2.98274 11.3346 2.67373 11.2744 2.38538 11.1559C2.09702 11.0374 1.83505 10.8628 1.61462 10.6423C1.39418 10.4219 1.21968 10.1599 1.1012 9.87149C0.982729 9.58311 0.922638 9.2741 0.92441 8.96234C0.926182 8.65058 0.989782 8.34227 1.11153 8.05526C1.23327 7.76825 1.41075 7.50824 1.63367 7.29029L3.40447 5.51949C3.49293 5.43103 3.54263 5.31105 3.54263 5.18595C3.54263 5.06085 3.49293 4.94088 3.40447 4.85242C3.31601 4.76396 3.19604 4.71426 3.07094 4.71426C2.94584 4.71426 2.82586 4.76396 2.7374 4.85242L0.966597 6.62381C0.347695 7.24271 0 8.08212 0 8.95738C0 9.83264 0.347695 10.6721 0.966597 11.291C1.5855 11.9099 2.42491 12.2575 3.30017 12.2575C4.17543 12.2575 5.01484 11.9099 5.63374 11.291L7.40513 9.51897C7.49351 9.43051 7.54313 9.31057 7.54308 9.18552C7.54302 9.06048 7.4933 8.94057 7.40484 8.85219C7.31638 8.76381 7.19643 8.71419 7.07139 8.71425C6.94634 8.7143 6.82644 8.76403 6.73806 8.85249Z" fill="var(--fill-0, #989281)"/>
</svg>
