<svg preserveAspectRatio="none" width="100%" height="100%" overflow="visible" style="display: block;" viewBox="0 0 13.3063 16.6666" fill="none" xmlns="http://www.w3.org/2000/svg">
<g id="vector">
<path d="M7.24073 6.82399C7.22292 7.16915 7.20259 7.56343 6.98516 7.83659C6.96788 7.85655 6.94956 7.8756 6.93029 7.89366C6.82359 8.00714 6.68759 8.08879 6.53739 8.12961L6.50839 8.13634C6.34573 8.17414 6.17555 8.16272 6.01943 8.1036C5.99552 8.09597 5.97201 8.08705 5.949 8.07699C5.63501 7.9272 5.44465 7.58224 5.27831 7.28082C5.26031 7.24819 5.24231 7.21558 5.22475 7.18428L4.97783 6.7444C4.45733 5.81727 3.93685 4.89018 3.42457 3.95807C3.36618 3.85167 3.30632 3.74647 3.24652 3.64139C3.07652 3.34264 2.90704 3.04482 2.77369 2.72348C2.76115 2.69327 2.74831 2.66275 2.73535 2.63196C2.59459 2.29748 2.44009 1.93036 2.51417 1.57079C2.65768 0.876207 3.50512 0.513758 4.10793 0.316302C4.29311 0.256997 4.48238 0.206858 4.67361 0.16095C4.86483 0.115043 5.05761 0.0791277 5.25005 0.0524155C5.87827 -0.034555 6.79899 -0.0806357 7.23078 0.480038C7.45458 0.770932 7.47597 1.16803 7.49547 1.53021C7.49729 1.56389 7.49908 1.59727 7.50103 1.63024C7.52157 1.97796 7.49938 2.32028 7.47712 2.66376C7.46931 2.78417 7.4615 2.90476 7.45551 3.02574C7.40684 4.01729 7.34791 5.0085 7.28899 5.99955C7.27479 6.23843 7.26059 6.47731 7.24653 6.71617C7.24447 6.75137 7.24261 6.78749 7.24073 6.82399Z" fill="var(--fill-0, #F6523C)"/>
<path d="M12.924 6.44125C12.7145 6.00149 12.4328 5.60002 12.0906 5.2535C12.0464 5.20951 11.999 5.16881 11.9488 5.13173C11.9025 5.09696 11.8543 5.06464 11.8046 5.03491C11.7535 5.00687 11.7009 4.98159 11.647 4.95917C11.5406 4.91739 11.4265 4.89856 11.3124 4.90389C11.2031 4.9101 11.0965 4.94003 11 4.99159C10.8536 5.06435 10.6952 5.18129 10.4846 5.37711C10.4654 5.39622 10.4429 5.41695 10.4203 5.43769L10.4043 5.45242L10.3861 5.46938C10.2468 5.60038 10.0949 5.75584 9.92156 5.93323L9.78896 6.06877C9.43357 6.42792 9.08354 6.78903 8.73571 7.15409L8.11338 7.79947C7.99945 7.9174 7.89565 8.04479 7.8032 8.18026C7.72442 8.29472 7.66863 8.42346 7.63907 8.55931C7.62199 8.66341 7.62448 8.76986 7.64648 8.87305L7.64966 8.88688C7.69887 9.10068 7.82898 9.28695 8.01276 9.40648C8.19646 9.52607 8.41941 9.56962 8.63471 9.52789C8.66881 9.52297 8.69527 9.51708 8.71137 9.51315L12.0799 8.73491C12.3249 8.67859 12.5715 8.62194 12.7914 8.4943C12.9489 8.4029 13.0988 8.31233 13.2016 8.12961C13.2565 8.02921 13.2898 7.91839 13.2992 7.80438C13.3501 7.35215 13.114 6.83857 12.924 6.44125Z" fill="var(--fill-0, #F6523C)"/>
<path d="M4.36198 10.5158L5.12942 10.3384C5.14556 10.3347 5.17223 10.3286 5.2048 10.3181C5.41655 10.2611 5.59801 10.1241 5.71095 9.93598C5.82391 9.74789 5.85954 9.52329 5.81034 9.30957L5.80716 9.29574C5.78195 9.1933 5.73779 9.09646 5.67696 9.01035C5.59095 8.90118 5.48453 8.80994 5.36362 8.74159C5.2213 8.6604 5.07234 8.59138 4.91834 8.53536L4.07688 8.2282C3.60466 8.05266 3.13247 7.8815 2.65583 7.71458C2.59426 7.69267 2.53456 7.67129 2.47664 7.65055C2.24376 7.56716 2.03952 7.49402 1.85729 7.43766C1.84324 7.43333 1.82872 7.42901 1.81419 7.42468C1.78429 7.41577 1.75436 7.40685 1.72843 7.3979C1.45333 7.31358 1.26004 7.27862 1.09646 7.27747C0.9872 7.27346 0.878368 7.29331 0.777519 7.33563C0.672429 7.38096 0.578044 7.44794 0.500539 7.53224C0.461987 7.57608 0.425739 7.6219 0.391945 7.66945C0.360233 7.71798 0.331151 7.76811 0.304824 7.81974C0.275835 7.87515 0.250921 7.93253 0.230285 7.9915C0.0741093 8.45318 -0.00368425 8.9377 0.000134022 9.42501C0.00294935 9.86552 0.0147813 10.4309 0.256921 10.8142C0.315268 10.9126 0.393568 10.9976 0.486773 11.0638C0.659275 11.1829 0.833591 11.1986 1.01495 11.2117C1.26884 11.2299 1.51531 11.1726 1.76064 11.1156L4.35984 10.515L4.36198 10.5158Z" fill="var(--fill-0, #F6523C)"/>
<path d="M6.69725 11.1291C6.6034 10.9971 6.4702 10.8982 6.31672 10.8465C6.16323 10.7948 5.9973 10.7929 5.84265 10.8412C5.80633 10.8533 5.77092 10.868 5.73672 10.8852C5.68383 10.9121 5.63337 10.9435 5.58589 10.9792C5.44761 11.0817 5.33115 11.2148 5.22513 11.3483C5.21564 11.3603 5.20645 11.3737 5.19712 11.3873C5.17999 11.4123 5.1624 11.4379 5.14169 11.4568L4.60796 12.191C4.30544 12.6023 4.0071 13.0146 3.71126 13.4335C3.67277 13.4874 3.63532 13.5396 3.59897 13.5903L3.59829 13.5913C3.45264 13.7945 3.3248 13.9728 3.21937 14.1343C3.21027 14.1482 3.20103 14.1626 3.19183 14.177C3.17576 14.2022 3.15977 14.2272 3.14468 14.2487C2.98661 14.4933 2.89709 14.6718 2.85114 14.8308C2.81663 14.9364 2.8057 15.0483 2.81914 15.1586C2.83383 15.2735 2.87252 15.384 2.93268 15.483C2.96466 15.5325 2.99914 15.5806 3.03597 15.6267C3.07424 15.6711 3.11489 15.7134 3.15774 15.7534C3.2035 15.797 3.25243 15.8372 3.30415 15.8736C3.67254 16.1299 4.07583 16.3141 4.50005 16.4564C4.85306 16.5735 5.21999 16.6437 5.59138 16.6649C5.65456 16.6682 5.71789 16.6668 5.78088 16.6609C5.83926 16.6558 5.89733 16.6476 5.95486 16.6364C6.01236 16.6231 6.06908 16.6065 6.12482 16.5871C6.23328 16.5465 6.33203 16.4837 6.41471 16.4025C6.49297 16.3241 6.5532 16.2296 6.59121 16.1255C6.6529 15.9718 6.69347 15.7765 6.72015 15.4867C6.72171 15.4593 6.72483 15.4282 6.72795 15.3971C6.72953 15.3815 6.7311 15.3658 6.73247 15.3507C6.749 15.1618 6.7585 14.9471 6.76931 14.7027C6.77227 14.6359 6.77533 14.5668 6.77865 14.4955C6.80475 13.9846 6.82522 13.476 6.8414 12.9659C6.8414 12.9659 6.87578 12.0595 6.87567 12.0589C6.88354 11.85 6.8771 11.6186 6.81916 11.4106C6.79372 11.3109 6.75257 11.2159 6.69725 11.1291Z" fill="var(--fill-0, #F6523C)"/>
<path d="M12.2036 12.1539C12.4525 12.3045 12.6104 12.4263 12.7218 12.5485C12.799 12.6282 12.8578 12.7241 12.894 12.8291C12.9309 12.9388 12.9442 13.0549 12.9333 13.1701C12.9264 13.2287 12.9164 13.287 12.9035 13.3446C12.8884 13.4013 12.8705 13.4572 12.8498 13.512C12.8277 13.5713 12.8013 13.6289 12.7707 13.6844C12.5513 14.0765 12.2691 14.419 11.95 14.7331C11.6838 14.9934 11.3846 15.2175 11.0599 15.3995C11.0046 15.4301 10.9471 15.4567 10.8879 15.4789C10.8332 15.5 10.7773 15.5181 10.7206 15.5333C10.6631 15.5466 10.6049 15.5566 10.5462 15.5636C10.431 15.575 10.3146 15.5621 10.2047 15.5256C10.1001 15.4895 10.0046 15.431 9.92503 15.3541C9.80211 15.2417 9.68085 15.0851 9.52995 14.8362C9.516 14.8112 9.4989 14.7834 9.48189 14.7557C9.47439 14.7434 9.46691 14.7313 9.45972 14.7194C9.36118 14.5548 9.25734 14.3633 9.13905 14.1451C9.10851 14.0888 9.07701 14.0307 9.04438 13.9708C8.79778 13.5234 8.5573 13.0745 8.31969 12.6231L7.89263 11.8228C7.79435 11.6384 7.69932 11.4279 7.66024 11.2151C7.64073 11.1146 7.63703 11.0118 7.6492 10.9102C7.67574 10.7505 7.75194 10.6032 7.867 10.4894C7.98206 10.3754 8.13009 10.3008 8.28998 10.276C8.32793 10.271 8.36611 10.2686 8.40444 10.2691C8.46371 10.2701 8.52282 10.2762 8.58111 10.2874C8.75015 10.3189 8.91307 10.3875 9.06668 10.4609C9.0804 10.4675 9.0945 10.4755 9.1088 10.4836C9.13525 10.4986 9.16242 10.514 9.18931 10.5219L9.98899 10.946C10.4416 11.1838 10.89 11.4236 11.3381 11.6696C11.4017 11.7042 11.4634 11.7375 11.523 11.7697C11.7367 11.8849 11.9247 11.9864 12.0867 12.0838C12.0998 12.0917 12.1132 12.0999 12.1267 12.1081C12.1532 12.1244 12.1798 12.1406 12.2036 12.1539Z" fill="var(--fill-0, #F6523C)"/>
</g>
</svg>
