<svg preserveAspectRatio="none" width="100%" height="100%" overflow="visible" style="display: block;" viewBox="0 0 36 36" fill="none" xmlns="http://www.w3.org/2000/svg">
<g id="Frame 2147238390">
<path d="M0 18C0 8.05887 8.05887 0 18 0V0C27.9411 0 36 8.05887 36 18V18C36 27.9411 27.9411 36 18 36V36C8.05887 36 0 27.9411 0 18V18Z" fill="var(--fill-0, #6D46E2)"/>
<g id="Subtract">
<path fill-rule="evenodd" clip-rule="evenodd" d="M17.8311 7.00707C18.6983 6.96899 19.5078 7.08521 20.3377 7.34474C20.4321 7.3743 20.5744 7.49795 20.6927 7.54879C20.7072 7.54335 20.7917 7.51292 20.8031 7.51358C20.9483 7.53385 21.3407 7.74134 21.4631 7.81925C21.7366 8.00176 22.1043 8.14625 22.3701 8.33056C23.591 9.17775 24.6811 10.2412 25.4803 11.5041C25.603 11.698 25.7854 11.8821 25.9155 12.0762C26.0754 12.3146 26.2227 12.5625 26.3658 12.8116C26.883 13.6891 27.2043 14.6382 27.469 15.6178C27.5377 15.8868 27.6869 16.1723 27.7382 16.4428C27.8573 17.07 27.9163 17.7297 27.9884 18.3648C28.0211 18.6537 27.9724 19.0164 27.9892 19.3138C27.9941 19.4016 27.8955 19.602 27.8947 19.7323L27.9598 19.7723C27.9734 19.8445 27.87 19.9712 27.859 20.0388C27.8106 20.3338 27.7135 20.5784 27.6048 20.851C27.3966 21.3733 27.0879 21.6479 26.5636 21.8352C26.2914 21.9323 25.9868 22.0326 25.6947 22.0616C25.1962 22.0915 24.4254 21.9519 23.9768 21.7448C23.697 21.6151 23.1539 21.3186 22.9364 21.115C21.6892 19.9309 20.8858 18.3455 20.2312 16.7716C20.0645 16.3708 20.0095 15.9646 19.9397 15.5322C19.8634 15.0589 19.8331 14.566 20.0311 14.1118C20.1408 13.8604 20.3304 13.7997 20.5712 13.7126C21.3238 14.2393 21.7866 16.6077 22.3661 17.3854C22.437 17.4809 22.5337 17.8065 22.6274 17.9503C23.089 18.7737 24.2124 20.4308 25.265 20.3388C27.9642 20.1018 25.6671 14.7418 24.8933 13.5157C24.5447 12.9629 23.7574 12.0102 23.3891 11.6593C23.4006 11.5711 23.4168 11.5259 23.3454 11.4681C23.2875 11.4851 23.2673 11.4964 23.2088 11.4793L23.1953 11.4401L23.2818 11.3672L23.2834 11.3328C23.1443 11.1856 22.9171 11.0994 22.7847 10.98C22.4315 10.6615 22.4783 10.4776 22.0143 10.2726C21.8239 9.91113 21.817 10.1067 21.4655 9.88931C21.2939 9.7832 20.8914 9.41473 20.7252 9.34919C20.3187 9.18891 19.9889 9.10281 19.5816 8.91229C19.5386 8.93042 19.5374 8.93505 19.4918 8.9315C19.4665 8.90011 19.4411 8.86613 19.4124 8.83787C19.2496 8.67949 17.6358 8.63118 17.3347 8.65063C17.174 8.66117 17.0214 8.73065 16.859 8.73945C16.8163 8.69307 16.8163 8.69077 16.7636 8.65783C16.6591 8.70103 16.6841 8.76396 16.5905 8.81227C16.4895 8.71851 16.4426 8.75349 16.3062 8.76506C15.8619 8.80277 15.4215 8.90234 15.006 9.07633C14.5954 9.24834 14.1086 9.52952 13.7782 9.8341C13.5612 10.0591 13.1753 10.6348 13.0435 10.9199C12.9035 11.2229 12.717 11.8252 12.8553 12.141C13.0514 12.5886 13.6258 12.469 13.9966 12.6075C14.2121 12.6916 14.3631 12.8727 14.4453 13.0804C14.6167 13.5138 14.5664 13.7523 14.3969 14.1679C14.0114 14.9613 12.9985 16.0144 12.2096 16.4652C12.085 16.5327 11.8233 16.5497 11.6981 16.4756C11.0099 16.0676 10.4141 14.9844 10.1374 14.2903C10.0145 14.4819 9.71935 14.9317 9.67122 15.1337C9.30918 16.6538 9.50739 18.7551 10.8753 19.6779C11.0692 19.0295 11.3939 18.2772 11.8426 17.7719C11.9779 17.8732 12.3231 18.3021 12.4558 18.4688C12.9529 19.0943 13.9937 19.6672 14.7797 19.7699C15.6919 19.8891 17.028 19.6963 17.8557 19.2658C18.1982 19.0512 18.5587 18.7605 18.8525 18.4856C19.1272 18.2286 19.1125 17.8692 19.433 17.635C19.438 17.6406 19.4431 17.6463 19.4481 17.6518C19.7845 18.05 19.9766 19.2595 19.9231 19.7363C19.7331 21.2292 19.2112 22.4288 18.152 23.4851C17.239 24.3949 16.1136 24.3262 15.3031 25.2591C14.9767 25.6349 14.6261 26.5467 14.4961 27.0299C14.1184 28.4337 12.882 29.0357 11.5226 28.9984C10.7494 28.9681 9.84238 28.4976 9.32097 27.9221C8.64663 27.2071 8.49956 26.3667 8.50927 25.4104C8.62669 23.9309 9.41877 22.3463 10.5083 21.3887C10.1002 21.2463 9.2775 20.7081 9.00566 20.3476C8.26745 19.3682 7.97423 17.3518 8.00176 16.1387C8.0195 15.3556 8.28143 14.7163 8.61967 14.0366C9.11079 13.0498 10.0456 12.269 11.2112 12.3635C11.1854 12.0347 11.1885 11.6891 11.2525 11.3616C11.3721 10.7502 11.8109 9.79959 12.2175 9.32918C12.5966 8.89083 13.3897 8.31108 13.8949 8.01369C14.0841 7.90237 14.3847 7.79541 14.5859 7.69202C14.8575 7.55227 15.1158 7.37245 15.4119 7.29113C16.0174 7.12501 16.5869 7.06863 17.2052 7.01987C17.3854 6.98877 17.6423 7.01529 17.8311 7.00707ZM13.5153 21.4279C11.5521 21.5887 9.79565 23.8891 9.89996 25.8249C9.92044 26.2035 10.0718 26.6728 10.3773 26.9219C11.0113 27.439 11.735 27.7762 12.5066 27.3036C13.1154 26.9075 13.3197 25.7945 13.6265 25.1439C14.199 23.9295 14.7013 23.1325 16.1322 23.0394C16.4469 22.6852 16.2209 22.4705 15.9265 22.2265C15.295 21.7028 14.3359 21.3789 13.5153 21.4279Z" fill="var(--fill-0, white)"/>
<path d="M21.745 21.3215C22.2047 21.3294 22.6005 21.688 22.5766 22.164C22.5851 22.5833 22.3805 22.8904 22.2303 23.2531C21.7687 24.3687 21.0682 25.3817 20.2153 26.2378C19.4311 27.0245 18.1753 27.5673 17.0766 27.7165C16.8742 27.7439 16.4984 27.7189 16.2768 27.7157C15.9886 27.7052 15.6962 27.6639 15.5119 27.4108C15.4154 27.2782 15.3392 27.0756 15.3785 26.9099C15.622 25.8889 16.8122 26.1217 17.5817 25.9217C17.9681 25.8219 18.3489 25.63 18.6714 25.396C18.7791 25.3176 18.8951 25.2289 18.9946 25.1415C19.3186 24.8367 19.7619 24.4922 20.0017 24.1141C20.3351 23.5884 20.675 23.0242 20.9849 22.4825C21.1581 22.1795 21.2721 21.8484 21.4774 21.5639C21.5623 21.4466 21.6291 21.4005 21.745 21.3215Z" fill="var(--fill-0, white)"/>
<path d="M17.4769 10.8439C18.6018 10.7753 18.9033 11.3604 18.7667 12.3963C18.7919 12.4526 18.8301 12.5217 18.8183 12.5859C18.665 13.4095 18.4535 13.9464 17.6103 14.2647C17.4914 14.3007 17.2835 14.2039 17.1457 14.2351C17.0474 14.2542 16.9729 14.2453 16.8852 14.1951C15.9366 13.6517 16.1361 12.3035 16.5929 11.4993C16.7845 11.1622 17.1505 10.9381 17.4769 10.8439Z" fill="var(--fill-0, white)"/>
</g>
</g>
</svg>
