<svg preserveAspectRatio="none" width="100%" height="100%" overflow="visible" style="display: block;" viewBox="0 0 24.5916 26.8495" fill="none" xmlns="http://www.w3.org/2000/svg">
<g id="Subtract">
<path fill-rule="evenodd" clip-rule="evenodd" d="M12.0881 0.00862424C13.1544 -0.0378396 14.1497 0.103995 15.1701 0.420734C15.2863 0.456803 15.4612 0.607714 15.6067 0.669757C15.6245 0.663119 15.7284 0.62598 15.7424 0.626788C15.921 0.651528 16.4035 0.90475 16.5539 0.999835C16.8903 1.22258 17.3423 1.39892 17.6692 1.62386C19.1703 2.65779 20.5108 3.95566 21.4934 5.49691C21.6443 5.73357 21.8685 5.95829 22.0285 6.19515C22.2252 6.48605 22.4062 6.78871 22.5822 7.09261C23.2181 8.16361 23.6132 9.32191 23.9387 10.5174C24.0231 10.8457 24.2066 11.1942 24.2697 11.5242C24.4161 12.2897 24.4887 13.0948 24.5774 13.87C24.6176 14.2225 24.5577 14.6651 24.5783 15.0282C24.5844 15.1353 24.4631 15.3799 24.4621 15.5389L24.5422 15.5877C24.5589 15.6758 24.4318 15.8305 24.4182 15.9129C24.3587 16.273 24.2393 16.5716 24.1057 16.9041C23.8497 17.5416 23.47 17.8768 22.8254 18.1053C22.4908 18.2239 22.1163 18.3463 21.7571 18.3817C21.1441 18.4181 20.1964 18.2478 19.6447 17.995C19.3007 17.8368 18.6329 17.4748 18.3654 17.2264C16.832 15.7812 15.8441 13.8464 15.0393 11.9256C14.8343 11.4364 14.7667 10.9407 14.6809 10.4129C14.587 9.83529 14.5497 9.23375 14.7932 8.67952C14.9281 8.37267 15.1612 8.29862 15.4572 8.19222C16.3826 8.83507 16.9517 11.7256 17.6643 12.6746C17.7515 12.7912 17.8704 13.1885 17.9856 13.3641C18.5532 14.369 19.9344 16.3913 21.2287 16.2791C24.5476 15.9898 21.7231 9.44838 20.7717 7.95198C20.3431 7.27733 19.375 6.11459 18.9221 5.68636C18.9363 5.57869 18.9562 5.5235 18.8684 5.45296C18.7972 5.47379 18.7723 5.48755 18.7004 5.46663L18.6838 5.41878L18.7903 5.32991L18.7922 5.28792C18.6212 5.10823 18.3418 5.00298 18.1789 4.85726C17.7447 4.46865 17.8022 4.24413 17.2317 3.99398C16.9976 3.55283 16.9891 3.79151 16.5569 3.5262C16.346 3.39671 15.851 2.94701 15.6467 2.86702C15.1468 2.67142 14.7413 2.56634 14.2404 2.33382C14.1877 2.35595 14.1862 2.3616 14.1301 2.35726C14.0989 2.31895 14.0677 2.27748 14.0324 2.243C13.8323 2.0497 11.848 1.99074 11.4778 2.01448C11.2802 2.02735 11.0926 2.11214 10.8928 2.12288C10.8404 2.06627 10.8404 2.06347 10.7756 2.02327C10.647 2.076 10.6778 2.1528 10.5627 2.21175C10.4386 2.09732 10.3808 2.14001 10.2131 2.15413C9.66687 2.20015 9.12528 2.32167 8.61447 2.53401C8.10958 2.74394 7.51105 3.0871 7.10471 3.45882C6.83798 3.73346 6.36341 4.43601 6.20139 4.78401C6.0293 5.15378 5.79991 5.88877 5.96994 6.27425C6.21106 6.82046 6.91741 6.67449 7.37326 6.84359C7.63829 6.94623 7.82394 7.16724 7.92502 7.42073C8.13581 7.94961 8.0739 8.24069 7.86545 8.74788C7.39154 9.71627 6.14601 11.0015 5.176 11.5516C5.02281 11.634 4.70104 11.6548 4.54709 11.5643C3.70089 11.0664 2.96831 9.74436 2.62814 8.8973C2.47699 9.1311 2.11408 9.68006 2.0549 9.92659C1.60975 11.7818 1.85346 14.3462 3.53537 15.4725C3.77382 14.6811 4.17306 13.7631 4.72482 13.1463C4.89121 13.27 5.31558 13.7934 5.47873 13.9969C6.08995 14.7602 7.3697 15.4595 8.33615 15.5848C9.45778 15.7302 11.1006 15.4949 12.1184 14.9696C12.5395 14.7077 12.9827 14.3529 13.344 14.0174C13.6818 13.7037 13.6637 13.265 14.0578 12.9793C14.064 12.9861 14.0703 12.9931 14.0764 12.9998C14.49 13.4858 14.7262 14.9619 14.6604 15.5438C14.4267 17.3657 13.7851 18.8298 12.4826 20.119C11.36 21.2293 9.97626 21.1455 8.97971 22.284C8.57838 22.7426 8.14738 23.8554 7.98752 24.4451C7.52301 26.1583 6.00279 26.8931 4.33127 26.8475C3.38061 26.8105 2.26535 26.2363 1.62424 25.534C0.795081 24.6613 0.614248 23.6357 0.626191 22.4686C0.770562 20.663 1.74449 18.7291 3.0842 17.5604C2.58234 17.3866 1.57078 16.7298 1.23654 16.2899C0.328846 15.0945 -0.0316876 12.6336 0.00216773 11.1532C0.0239757 10.1975 0.346042 9.41724 0.761933 8.58773C1.3658 7.38332 2.5152 6.43048 3.94846 6.54573C3.91668 6.14454 3.9205 5.72275 3.99924 5.32308C4.14631 4.57682 4.68578 3.4167 5.18576 2.84261C5.65188 2.30763 6.6271 1.60008 7.24826 1.23714C7.48083 1.10128 7.85051 0.970743 8.09787 0.844562C8.43189 0.674006 8.74947 0.454555 9.1135 0.355304C9.85806 0.15256 10.5583 0.0837545 11.3186 0.0242492C11.5401 -0.0137092 11.856 0.0186636 12.0881 0.00862424ZM6.78146 17.6082C4.36764 17.8045 2.2079 20.6119 2.33615 22.9744C2.36134 23.4365 2.54744 24.0093 2.92307 24.3133C3.70269 24.9444 4.59243 25.3559 5.54123 24.7791C6.28982 24.2957 6.54101 22.9374 6.91818 22.1434C7.62216 20.6613 8.23981 19.6886 9.99924 19.575C10.3862 19.1427 10.1082 18.8807 9.74631 18.5828C8.96976 17.9437 7.79053 17.5485 6.78146 17.6082Z" fill="var(--fill-0, #5D5A56)"/>
<path d="M16.9006 17.4784C17.4659 17.4881 17.9525 17.9257 17.9231 18.5067C17.9335 19.0183 17.682 19.3932 17.4973 19.8358C16.9297 21.1973 16.0684 22.4336 15.0197 23.4784C14.0555 24.4385 12.5113 25.101 11.1604 25.283C10.9115 25.3165 10.4494 25.286 10.177 25.2821C9.8226 25.2693 9.46308 25.2188 9.23654 24.91C9.11788 24.7481 9.02411 24.5009 9.07248 24.2987C9.37187 23.0526 10.8353 23.3368 11.7815 23.0926C12.2566 22.9709 12.7248 22.7366 13.1213 22.451C13.2538 22.3554 13.3965 22.2471 13.5188 22.1405C13.9172 21.7684 14.4622 21.348 14.7571 20.8866C15.167 20.245 15.585 19.5565 15.966 18.8953C16.1789 18.5255 16.3191 18.1215 16.5715 17.7743C16.6759 17.6311 16.7581 17.5748 16.9006 17.4784Z" fill="var(--fill-0, #5D5A56)"/>
<path d="M11.6526 4.69124C13.0358 4.60754 13.4064 5.32154 13.2385 6.58577C13.2695 6.65453 13.3164 6.73887 13.302 6.81722C13.1134 7.8223 12.8534 8.47766 11.8166 8.86605C11.6704 8.91004 11.4148 8.79192 11.2453 8.82991C11.1245 8.85319 11.033 8.84239 10.925 8.78109C9.75873 8.11791 10.004 6.47252 10.5656 5.49105C10.8013 5.07972 11.2513 4.80621 11.6526 4.69124Z" fill="var(--fill-0, #5D5A56)"/>
</g>
</svg>
