<svg preserveAspectRatio="none" width="100%" height="100%" overflow="visible" style="display: block;" viewBox="0 0 13.5035 13.5037" fill="none" xmlns="http://www.w3.org/2000/svg">
<path id="Vector" d="M4.22036 8.22182L8.22036 4.22182C8.29012 4.15205 8.37294 4.09671 8.4641 4.05896C8.55525 4.0212 8.65294 4.00177 8.75161 4.00177C8.85027 4.00177 8.94796 4.0212 9.03912 4.05896C9.13027 4.09671 9.21309 4.15205 9.28286 4.22182C9.35262 4.29158 9.40796 4.37441 9.44572 4.46556C9.48347 4.55671 9.50291 4.65441 9.50291 4.75307C9.50291 4.85173 9.48347 4.94943 9.44572 5.04058C9.40796 5.13173 9.35262 5.21455 9.28286 5.28432L5.28286 9.28432C5.14196 9.42522 4.95086 9.50437 4.75161 9.50437C4.55235 9.50437 4.36125 9.42522 4.22036 9.28432C4.07946 9.14342 4.0003 8.95233 4.0003 8.75307C4.0003 8.55381 4.07946 8.36272 4.22036 8.22182ZM12.4079 1.09682C11.7039 0.394452 10.7501 0 9.75567 0C8.76125 0 7.80743 0.394452 7.10348 1.09682L5.22098 2.97744C5.08008 3.11834 5.00093 3.30944 5.00093 3.50869C5.00093 3.60736 5.02036 3.70505 5.05812 3.7962C5.09588 3.88736 5.15122 3.97018 5.22098 4.03994C5.29075 4.10971 5.37357 4.16505 5.46472 4.20281C5.55587 4.24056 5.65357 4.25999 5.75223 4.25999C5.95149 4.25999 6.14258 4.18084 6.28348 4.03994L8.16286 2.16119C8.58488 1.73909 9.1573 1.50191 9.7542 1.50186C10.3511 1.5018 10.9236 1.73886 11.3457 2.16088C11.7678 2.58291 12.0049 3.15533 12.005 3.75222C12.0051 4.34912 11.768 4.92159 11.346 5.34369L9.46411 7.22182C9.39434 7.29158 9.339 7.37441 9.30124 7.46556C9.26349 7.55671 9.24405 7.65441 9.24405 7.75307C9.24405 7.85173 9.26349 7.94943 9.30124 8.04058C9.339 8.13173 9.39434 8.21455 9.46411 8.28432C9.53387 8.35408 9.61669 8.40942 9.70785 8.44718C9.799 8.48494 9.89669 8.50437 9.99536 8.50437C10.094 8.50437 10.1917 8.48494 10.2829 8.44718C10.374 8.40942 10.4568 8.35408 10.5266 8.28432L12.4066 6.40557C13.1093 5.70118 13.5038 4.74672 13.5035 3.75174C13.5031 2.75676 13.108 1.80258 12.4047 1.09869L12.4079 1.09682ZM7.22161 9.46432L5.34223 11.3443C5.13322 11.5533 4.8851 11.719 4.61204 11.8321C4.33897 11.9452 4.04631 12.0034 3.75076 12.0033C3.45521 12.0033 3.16256 11.9451 2.88951 11.8319C2.61647 11.7188 2.36838 11.553 2.15942 11.344C1.73739 10.9219 1.50033 10.3494 1.50039 9.75253C1.50045 9.15564 1.73762 8.58322 2.15973 8.16119L4.03848 6.28182C4.10825 6.21205 4.16359 6.12923 4.20134 6.03808C4.2391 5.94693 4.25853 5.84923 4.25853 5.75057C4.25853 5.65191 4.2391 5.55421 4.20134 5.46306C4.16359 5.37191 4.10825 5.28908 4.03848 5.21932C3.96872 5.14955 3.88589 5.09421 3.79474 5.05646C3.70359 5.0187 3.60589 4.99927 3.50723 4.99927C3.40857 4.99927 3.31087 5.0187 3.21972 5.05646C3.12857 5.09421 3.04575 5.14955 2.97598 5.21932L1.09848 7.10057C0.75019 7.4489 0.473919 7.86242 0.285442 8.31752C0.0969643 8.77262 -2.90118e-05 9.26039 6.50931e-09 9.75298C5.86116e-05 10.7478 0.395306 11.7019 1.09879 12.4053C1.80228 13.1087 2.75638 13.5038 3.7512 13.5037C4.74602 13.5037 5.70008 13.1084 6.40348 12.4049L8.28223 10.5256C8.42313 10.3847 8.50228 10.1936 8.50228 9.99432C8.50228 9.79506 8.42313 9.60397 8.28223 9.46307C8.14134 9.32217 7.95024 9.24302 7.75098 9.24302C7.55172 9.24302 7.36063 9.32217 7.21973 9.46307L7.22161 9.46432Z" fill="var(--fill-0, #4187D7)"/>
</svg>
