<svg preserveAspectRatio="none" width="100%" height="100%" overflow="visible" style="display: block;" viewBox="0 0 15 15" fill="none" xmlns="http://www.w3.org/2000/svg">
<g id="vector">
<path fill-rule="evenodd" clip-rule="evenodd" d="M4.7741 4.77411C5.49706 4.05115 6.47759 3.645 7.5 3.645C8.52241 3.645 9.50294 4.05115 10.2259 4.77411C10.9488 5.49706 11.355 6.47759 11.355 7.5C11.355 8.52241 10.9488 9.50295 10.2259 10.2259C9.50294 10.9489 8.52241 11.355 7.5 11.355C6.47759 11.355 5.49706 10.9489 4.7741 10.2259C4.05115 9.50295 3.645 8.52241 3.645 7.5C3.645 6.47759 4.05115 5.49706 4.7741 4.77411ZM6.54233 9.81201C6.84595 9.93777 7.17137 10.0025 7.5 10.0025C8.1637 10.0025 8.80022 9.73885 9.26953 9.26954C9.73884 8.80023 10.0025 8.16371 10.0025 7.5C10.0025 6.8363 9.73884 6.19978 9.26953 5.73047C8.80022 5.26116 8.1637 4.9975 7.5 4.9975C7.17137 4.9975 6.84595 5.06223 6.54233 5.18799C6.23872 5.31376 5.96284 5.49809 5.73047 5.73047C5.49809 5.96285 5.31375 6.23872 5.18799 6.54234C5.06223 6.84595 4.9975 7.17137 4.9975 7.5C4.9975 7.82864 5.06223 8.15405 5.18799 8.45767C5.31375 8.76128 5.49809 9.03716 5.73047 9.26954C5.96284 9.50192 6.23872 9.68625 6.54233 9.81201Z" fill="var(--fill-0, #965CBC)"/>
<path d="M12.2096 4.21935C12.3805 4.04846 12.4765 3.81668 12.4765 3.575C12.4765 3.33332 12.3805 3.10154 12.2096 2.93065C12.0387 2.75976 11.8069 2.66375 11.5652 2.66375C11.3236 2.66375 11.0918 2.75976 10.9209 2.93065C10.75 3.10154 10.654 3.33332 10.654 3.575C10.654 3.81668 10.75 4.04846 10.9209 4.21935C11.0918 4.39025 11.3236 4.48625 11.5652 4.48625C11.8069 4.48625 12.0387 4.39025 12.2096 4.21935Z" fill="var(--fill-0, #965CBC)"/>
<path fill-rule="evenodd" clip-rule="evenodd" d="M4.408 0.0449999C5.208 0.00850002 5.463 0 7.5 0C9.5375 0 9.792 0.0089999 10.5915 0.0449999C11.39 0.0815 11.936 0.209 12.413 0.3935C12.9133 0.581929 13.3664 0.877111 13.741 1.2585C14.1225 1.63316 14.4177 2.08653 14.606 2.587C14.7915 3.064 14.9185 3.6095 14.955 4.408C14.9915 5.208 15 5.463 15 7.5C15 9.537 14.9915 9.792 14.955 10.592C14.9185 11.3905 14.7915 11.936 14.6065 12.413C14.4181 12.9133 14.1229 13.3664 13.7415 13.741C13.3665 14.123 12.913 14.418 12.413 14.606C11.936 14.7915 11.3905 14.9185 10.592 14.955C9.792 14.9915 9.537 15 7.5 15C5.463 15 5.208 14.9915 4.408 14.955C3.6095 14.9185 3.064 14.7915 2.587 14.6065C2.08675 14.4181 1.63358 14.1229 1.259 13.7415C0.877 13.3665 0.582 12.913 0.394 12.413C0.2085 11.936 0.0815 11.3905 0.0449999 10.592C0.00850002 9.792 0 9.5375 0 7.5C0 5.4625 0.0089999 5.208 0.0449999 4.4085C0.0815 3.61 0.209 3.064 0.3935 2.587C0.581929 2.08675 0.877111 1.63357 1.2585 1.259C1.6335 0.877 2.087 0.582 2.587 0.394C3.064 0.2085 3.6095 0.0815 4.408 0.0449999ZM10.531 1.395C9.74 1.359 9.5025 1.3515 7.5 1.3515C5.4975 1.3515 5.26 1.359 4.469 1.395C3.738 1.4285 3.341 1.5505 3.0765 1.6535C2.7507 1.77349 2.45597 1.96502 2.214 2.214C1.952 2.4765 1.789 2.7265 1.6535 3.0765C1.55 3.341 1.4285 3.738 1.395 4.469C1.359 5.26 1.3515 5.4975 1.3515 7.5C1.3515 9.5025 1.359 9.74 1.395 10.531C1.4285 11.262 1.5505 11.659 1.6535 11.9235C1.77356 12.2493 1.96509 12.544 2.214 12.786C2.456 13.0349 2.75073 13.2265 3.0765 13.3465C3.341 13.45 3.738 13.5715 4.469 13.605C5.26 13.641 5.497 13.6485 7.5 13.6485C9.503 13.6485 9.74 13.641 10.531 13.605C11.262 13.5715 11.659 13.4495 11.9235 13.3465C12.2493 13.2265 12.544 13.035 12.786 12.786C13.0349 12.544 13.2265 12.2493 13.3465 11.9235C13.45 11.659 13.5715 11.262 13.605 10.531C13.641 9.74 13.6485 9.5025 13.6485 7.5C13.6485 5.4975 13.641 5.26 13.605 4.469C13.5715 3.738 13.4495 3.341 13.3465 3.0765C13.211 2.7265 13.0485 2.4765 12.786 2.214C12.5235 1.952 12.2735 1.789 11.9235 1.6535C11.659 1.55 11.262 1.4285 10.531 1.395Z" fill="var(--fill-0, #965CBC)"/>
</g>
</svg>
