<svg preserveAspectRatio="none" width="100%" height="100%" overflow="visible" style="display: block;" viewBox="0 0 52 52" fill="none" xmlns="http://www.w3.org/2000/svg">
<g id="Frame 2147238389">
<path d="M0 26C0 11.6406 11.6406 0 26 0V0C40.3594 0 52 11.6406 52 26V26C52 40.3594 40.3594 52 26 52V52C11.6406 52 0 40.3594 0 26V26Z" fill="var(--fill-0, #CCB199)"/>
<g id="Subtract">
<mask id="path-2-outside-1_1227_674" maskUnits="userSpaceOnUse" x="4.02156" y="9.15096" width="43.3665" height="33.8261" fill="black">
<rect fill="white" x="4.02156" y="9.15096" width="43.3665" height="33.8261"/>
<path d="M21.8329 12.631C23.1234 12.7426 25.3388 13.4791 26.321 14.3914C32.1968 19.849 24.8467 26.7572 25.3488 32.8921C25.5801 35.7178 27.1996 38.6257 30.33 38.3333C32.4487 38.1353 33.6315 36.6219 34.8269 35.0878C32.8164 32.9733 31.8049 30.2431 32.4734 27.3619C32.5667 26.9599 32.5698 26.3182 33.0541 26.2508C33.3824 26.428 33.4379 26.5623 33.6808 26.8276C35.8356 29.1829 36.0934 31.0292 35.8712 34.0949C36.7652 31.6893 38.5798 29.4868 39.1055 26.9442C39.4104 25.4637 37.4264 23.163 38.6113 20.3741C38.8167 19.8908 39.1785 19.5494 39.6742 19.3778C40.1646 19.2079 40.8021 19.1457 41.2771 19.3812C42.08 19.7792 42.3495 20.7742 42.6084 21.5547C42.8536 21.3986 43.1545 21.2693 43.4203 21.1448C44.1712 20.7931 44.6085 21.1449 44.8555 21.4125C45.761 22.3933 45.8978 23.3873 45.145 24.5247C44.0739 26.145 41.7777 26.8097 39.976 27.1858C39.7668 27.7227 39.6608 28.2734 39.4176 28.8111C38.5755 30.6688 37.6565 32.4222 36.6296 34.1789C37.8137 33.4881 39.2471 33.1201 40.5881 33.4085C41.0807 33.5145 41.9242 33.6285 42.3522 33.8492C42.6765 34.5015 41.6716 35.0692 41.1949 35.3465C39.4124 36.3833 38.3294 36.4116 36.3878 35.8596C36.2819 35.8317 35.7078 35.6835 35.64 35.7459C34.8717 36.4427 34.2463 37.4535 33.3772 38.0355C31.2166 39.4819 28.6779 39.8157 26.6712 37.944C24.8156 36.2131 24.5074 34.17 24.3796 31.8016C23.118 33.146 22.3905 33.836 20.7428 34.7539C18.1109 36.1804 14.4629 36.6909 11.5854 35.7986C7.71018 34.5966 5.36268 31.5422 6.6678 27.4526C7.2441 25.6356 8.53223 24.1292 10.2382 23.2789C14.6229 21.0415 23.045 22.8696 25.3375 27.3664C26.5546 24.9181 28.0869 20.7324 27.5303 18.0289C26.3684 12.3874 17.409 12.5294 13.596 15.1675C13.1988 15.4423 11.3218 16.8829 11.081 16.9338C10.8055 16.7005 10.8645 16.8081 10.7425 16.4935C10.8356 16.135 11.741 15.3581 12.0774 15.1027C15.093 12.8126 18.2118 12.2569 21.8329 12.631ZM19.9282 24.1967C18.5485 23.7034 17.7744 23.341 16.2459 23.2263C11.9051 22.922 7.59828 24.3768 7.23795 29.3846C6.93092 33.6522 11.7885 35.726 15.4572 35.2841C22.4266 34.9206 29.5865 27.6512 19.9282 24.1967ZM40.8513 34.3067C40.6337 34.0991 40.3564 34.1025 40.0255 34.0598C38.886 34.1571 37.7771 34.4157 36.8654 35.1374L37.8545 35.3151C38.5525 35.3527 40.7681 35.1261 40.8513 34.3067ZM33.3268 27.8447C33.0328 28.8948 33.0221 29.5839 33.2891 30.66C33.4898 31.4684 34.3312 33.5823 35.0059 34.0135C35.4209 32.4853 34.8146 28.7095 33.3268 27.8447ZM41.2397 20.5054C40.9755 20.2227 39.9974 19.6812 39.5432 20.5289C38.7978 22.7718 39.0006 24.5562 39.999 26.2099C41.4388 26.0891 44.8101 25.1877 44.717 23.3227C44.4157 20.505 42.0243 23.3227 41.5529 23.0813C41.0822 22.8394 41.8873 21.1991 41.2397 20.5054Z"/>
</mask>
<path d="M21.8329 12.631C23.1234 12.7426 25.3388 13.4791 26.321 14.3914C32.1968 19.849 24.8467 26.7572 25.3488 32.8921C25.5801 35.7178 27.1996 38.6257 30.33 38.3333C32.4487 38.1353 33.6315 36.6219 34.8269 35.0878C32.8164 32.9733 31.8049 30.2431 32.4734 27.3619C32.5667 26.9599 32.5698 26.3182 33.0541 26.2508C33.3824 26.428 33.4379 26.5623 33.6808 26.8276C35.8356 29.1829 36.0934 31.0292 35.8712 34.0949C36.7652 31.6893 38.5798 29.4868 39.1055 26.9442C39.4104 25.4637 37.4264 23.163 38.6113 20.3741C38.8167 19.8908 39.1785 19.5494 39.6742 19.3778C40.1646 19.2079 40.8021 19.1457 41.2771 19.3812C42.08 19.7792 42.3495 20.7742 42.6084 21.5547C42.8536 21.3986 43.1545 21.2693 43.4203 21.1448C44.1712 20.7931 44.6085 21.1449 44.8555 21.4125C45.761 22.3933 45.8978 23.3873 45.145 24.5247C44.0739 26.145 41.7777 26.8097 39.976 27.1858C39.7668 27.7227 39.6608 28.2734 39.4176 28.8111C38.5755 30.6688 37.6565 32.4222 36.6296 34.1789C37.8137 33.4881 39.2471 33.1201 40.5881 33.4085C41.0807 33.5145 41.9242 33.6285 42.3522 33.8492C42.6765 34.5015 41.6716 35.0692 41.1949 35.3465C39.4124 36.3833 38.3294 36.4116 36.3878 35.8596C36.2819 35.8317 35.7078 35.6835 35.64 35.7459C34.8717 36.4427 34.2463 37.4535 33.3772 38.0355C31.2166 39.4819 28.6779 39.8157 26.6712 37.944C24.8156 36.2131 24.5074 34.17 24.3796 31.8016C23.118 33.146 22.3905 33.836 20.7428 34.7539C18.1109 36.1804 14.4629 36.6909 11.5854 35.7986C7.71018 34.5966 5.36268 31.5422 6.6678 27.4526C7.2441 25.6356 8.53223 24.1292 10.2382 23.2789C14.6229 21.0415 23.045 22.8696 25.3375 27.3664C26.5546 24.9181 28.0869 20.7324 27.5303 18.0289C26.3684 12.3874 17.409 12.5294 13.596 15.1675C13.1988 15.4423 11.3218 16.8829 11.081 16.9338C10.8055 16.7005 10.8645 16.8081 10.7425 16.4935C10.8356 16.135 11.741 15.3581 12.0774 15.1027C15.093 12.8126 18.2118 12.2569 21.8329 12.631ZM19.9282 24.1967C18.5485 23.7034 17.7744 23.341 16.2459 23.2263C11.9051 22.922 7.59828 24.3768 7.23795 29.3846C6.93092 33.6522 11.7885 35.726 15.4572 35.2841C22.4266 34.9206 29.5865 27.6512 19.9282 24.1967ZM40.8513 34.3067C40.6337 34.0991 40.3564 34.1025 40.0255 34.0598C38.886 34.1571 37.7771 34.4157 36.8654 35.1374L37.8545 35.3151C38.5525 35.3527 40.7681 35.1261 40.8513 34.3067ZM33.3268 27.8447C33.0328 28.8948 33.0221 29.5839 33.2891 30.66C33.4898 31.4684 34.3312 33.5823 35.0059 34.0135C35.4209 32.4853 34.8146 28.7095 33.3268 27.8447ZM41.2397 20.5054C40.9755 20.2227 39.9974 19.6812 39.5432 20.5289C38.7978 22.7718 39.0006 24.5562 39.999 26.2099C41.4388 26.0891 44.8101 25.1877 44.717 23.3227C44.4157 20.505 42.0243 23.3227 41.5529 23.0813C41.0822 22.8394 41.8873 21.1991 41.2397 20.5054Z" fill="var(--fill-0, #8A7050)"/>
<path d="M21.8329 12.631L21.7958 12.9903L21.8018 12.9908L21.8329 12.631ZM26.321 14.3914L26.5667 14.1268L26.5667 14.1268L26.321 14.3914ZM25.3488 32.8921L24.9889 32.9215L24.9889 32.9216L25.3488 32.8921ZM30.33 38.3333L30.3636 38.6929L30.3636 38.6929L30.33 38.3333ZM34.8269 35.0878L35.1118 35.3098L35.303 35.0644L35.0886 34.839L34.8269 35.0878ZM32.4734 27.3619L32.1216 27.2803L32.1216 27.2803L32.4734 27.3619ZM33.0541 26.2508L33.2255 25.933L33.1214 25.8768L33.0043 25.8931L33.0541 26.2508ZM33.6808 26.8276L33.9472 26.5838L33.9471 26.5838L33.6808 26.8276ZM35.8712 34.0949L35.511 34.0688L36.2097 34.2207L35.8712 34.0949ZM39.1055 26.9442L39.4591 27.0173L39.4592 27.0171L39.1055 26.9442ZM38.6113 20.3741L38.279 20.2329L38.279 20.2329L38.6113 20.3741ZM39.6742 19.3778L39.7923 19.719L39.7923 19.719L39.6742 19.3778ZM41.2771 19.3812L41.4375 19.0576L41.4375 19.0576L41.2771 19.3812ZM42.6084 21.5547L42.2657 21.6684L42.4116 22.1082L42.8024 21.8593L42.6084 21.5547ZM43.4203 21.1448L43.2671 20.8178L43.267 20.8178L43.4203 21.1448ZM44.8555 21.4125L45.1208 21.1675L45.1208 21.1675L44.8555 21.4125ZM45.145 24.5247L44.8438 24.3253L44.8437 24.3255L45.145 24.5247ZM39.976 27.1858L39.9023 26.8323L39.7106 26.8723L39.6396 27.0547L39.976 27.1858ZM39.4176 28.8111L39.7465 28.9602L39.7467 28.9599L39.4176 28.8111ZM36.6296 34.1789L36.3179 33.9966L35.6241 35.1836L36.8116 34.4908L36.6296 34.1789ZM40.5881 33.4085L40.6641 33.0555L40.664 33.0555L40.5881 33.4085ZM42.3522 33.8492L42.6756 33.6885L42.6229 33.5825L42.5177 33.5283L42.3522 33.8492ZM41.1949 35.3465L41.3764 35.6586L41.3764 35.6586L41.1949 35.3465ZM36.3878 35.8596L36.4865 35.5122L36.4797 35.5104L36.3878 35.8596ZM35.64 35.7459L35.8826 36.0133L35.8842 36.0118L35.64 35.7459ZM33.3772 38.0355L33.5781 38.3355L33.5781 38.3355L33.3772 38.0355ZM26.6712 37.944L26.4249 38.208L26.4249 38.208L26.6712 37.944ZM24.3796 31.8016L24.7402 31.7822L24.6946 30.9382L24.1163 31.5545L24.3796 31.8016ZM20.7428 34.7539L20.9149 35.0713L20.9186 35.0693L20.7428 34.7539ZM11.5854 35.7986L11.4784 36.1435L11.4784 36.1435L11.5854 35.7986ZM6.6678 27.4526L7.01182 27.5624L7.01202 27.5618L6.6678 27.4526ZM10.2382 23.2789L10.3993 23.6021L10.4023 23.6005L10.2382 23.2789ZM25.3375 27.3664L25.0158 27.5304L25.3416 28.1695L25.6609 27.5272L25.3375 27.3664ZM27.5303 18.0289L27.884 17.9561L27.884 17.956L27.5303 18.0289ZM13.596 15.1675L13.3905 14.8705L13.3905 14.8705L13.596 15.1675ZM11.081 16.9338L10.8477 17.2094L10.9827 17.3237L11.1557 17.2871L11.081 16.9338ZM10.7425 16.4935L10.393 16.4027L10.3637 16.5155L10.4058 16.6241L10.7425 16.4935ZM12.0774 15.1027L12.2957 15.3903L12.2957 15.3902L12.0774 15.1027ZM19.9282 24.1967L20.0498 23.8567L20.0498 23.8567L19.9282 24.1967ZM16.2459 23.2263L16.273 22.8662L16.2712 22.8661L16.2459 23.2263ZM7.23795 29.3846L6.87777 29.3587L6.87777 29.3587L7.23795 29.3846ZM15.4572 35.2841L15.4384 34.9235L15.4262 34.9241L15.4141 34.9256L15.4572 35.2841ZM40.8513 34.3067L41.2106 34.3432L41.2284 34.1674L41.1005 34.0454L40.8513 34.3067ZM40.0255 34.0598L40.0717 33.7017L40.0333 33.6967L39.9948 33.7L40.0255 34.0598ZM36.8654 35.1375L36.6413 34.8543L36.0135 35.3513L36.8016 35.4929L36.8654 35.1375ZM37.8545 35.3151L37.7907 35.6705L37.8128 35.6745L37.8351 35.6757L37.8545 35.3151ZM33.3268 27.8447L33.5082 27.5325L33.1048 27.2981L32.979 27.7474L33.3268 27.8447ZM33.2891 30.66L32.9386 30.7469L32.9387 30.747L33.2891 30.66ZM35.0059 34.0135L34.8115 34.3177L35.2256 34.5824L35.3544 34.1081L35.0059 34.0135ZM41.2397 20.5054L41.5037 20.259L41.5035 20.2588L41.2397 20.5054ZM39.5432 20.5289L39.2249 20.3584L39.2103 20.3856L39.2005 20.415L39.5432 20.5289ZM39.999 26.2099L39.6899 26.3965L39.8058 26.5885L40.0292 26.5698L39.999 26.2099ZM44.717 23.3227L45.0776 23.3046L45.0771 23.2944L45.076 23.2843L44.717 23.3227ZM41.5529 23.0813L41.3878 23.4025L41.3883 23.4027L41.5529 23.0813ZM21.8329 12.631L21.8018 12.9908C22.4062 13.0431 23.2501 13.2453 24.0665 13.5493C24.8885 13.8555 25.6357 14.2477 26.0752 14.656L26.321 14.3914L26.5667 14.1268C26.0241 13.6228 25.1725 13.1906 24.3186 12.8725C23.4592 12.5524 22.5501 12.3306 21.8641 12.2713L21.8329 12.631ZM26.321 14.3914L26.0752 14.6559C27.4814 15.9621 28.0815 17.3362 28.2179 18.7564C28.3557 20.1922 28.0222 21.7019 27.5068 23.2754C27.2497 24.0604 26.9506 24.8521 26.6473 25.6536C26.345 26.4523 26.0384 27.261 25.7722 28.0675C25.2409 29.6774 24.8574 31.3148 24.9889 32.9215L25.3488 32.8921L25.7087 32.8626C25.5891 31.4019 25.9361 29.8753 26.4581 28.2939C26.7185 27.5047 27.0193 26.711 27.3228 25.9092C27.6252 25.1102 27.9302 24.3033 28.1932 23.5002C28.7181 21.8975 29.089 20.2734 28.9368 18.6873C28.783 17.0855 28.0984 15.5494 26.5667 14.1268L26.321 14.3914ZM25.3488 32.8921L24.9889 32.9216C25.1087 34.385 25.5886 35.8923 26.469 37.0059C27.3597 38.1327 28.6612 38.8519 30.3636 38.6929L30.33 38.3333L30.2964 37.9738C28.8684 38.1072 27.7949 37.5186 27.0355 36.558C26.2657 35.5843 25.8202 34.2248 25.7087 32.8626L25.3488 32.8921ZM30.33 38.3333L30.3636 38.6929C32.6601 38.4782 33.9324 36.8233 35.1118 35.3098L34.8269 35.0878L34.5421 34.8659C33.3306 36.4206 32.2373 37.7924 30.2964 37.9738L30.33 38.3333ZM34.8269 35.0878L35.0886 34.839C33.144 32.7938 32.1895 30.1834 32.8252 27.4435L32.4734 27.3619L32.1216 27.2803C31.4203 30.3029 32.4888 33.1528 34.5652 35.3366L34.8269 35.0878ZM32.4734 27.3619L32.8252 27.4436C32.8513 27.3309 32.8722 27.1963 32.8909 27.0915C32.9114 26.9765 32.932 26.8782 32.9597 26.795C33.0156 26.6271 33.0642 26.614 33.1038 26.6085L33.0541 26.2508L33.0043 25.8931C32.5596 25.955 32.3645 26.2965 32.2745 26.5668C32.2292 26.7027 32.2013 26.8444 32.1799 26.9649C32.1566 27.0956 32.1421 27.1919 32.1216 27.2803L32.4734 27.3619ZM33.0541 26.2508L32.8826 26.5686C33.1401 26.7075 33.1313 26.7621 33.4144 27.0714L33.6808 26.8276L33.9471 26.5838C33.7445 26.3624 33.6248 26.1484 33.2255 25.933L33.0541 26.2508ZM33.6808 26.8276L33.4143 27.0714C34.4628 28.2173 35.0311 29.2181 35.3186 30.2885C35.6085 31.3675 35.6214 32.546 35.511 34.0688L35.8712 34.0949L36.2314 34.121C36.3432 32.5781 36.3383 31.3006 36.0161 30.1012C35.6916 28.8932 35.0536 27.7931 33.9472 26.5838L33.6808 26.8276ZM35.8712 34.0949L36.2097 34.2207C36.6453 33.0486 37.3038 31.9289 37.9442 30.7425C38.5767 29.5708 39.1847 28.3445 39.4591 27.0173L39.1055 26.9442L38.7519 26.8711C38.5006 28.0865 37.9384 29.2328 37.3087 30.3994C36.6869 31.5513 35.9911 32.7356 35.5327 33.9691L35.8712 34.0949ZM39.1055 26.9442L39.4592 27.0171C39.5533 26.5601 39.4665 26.0697 39.3392 25.5922C39.2745 25.3495 39.1953 25.0967 39.1152 24.8418C39.0343 24.5845 38.9518 24.3232 38.8762 24.0527C38.5749 22.9742 38.3986 21.7984 38.9437 20.5153L38.6113 20.3741L38.279 20.2329C37.6392 21.7388 37.8623 23.1077 38.1806 24.247C38.2599 24.5308 38.3461 24.8035 38.4262 25.0585C38.5071 25.3158 38.5814 25.5535 38.6414 25.7783C38.7633 26.2357 38.8102 26.5881 38.7518 26.8714L39.1055 26.9442ZM38.6113 20.3741L38.9437 20.5154C39.1098 20.1246 39.3945 19.8568 39.7923 19.719L39.6742 19.3778L39.556 19.0366C38.9624 19.2421 38.5237 19.657 38.279 20.2329L38.6113 20.3741ZM39.6742 19.3778L39.7923 19.719C40.2402 19.5639 40.7659 19.5308 41.1167 19.7047L41.2771 19.3812L41.4375 19.0576C40.8384 18.7607 40.089 18.852 39.556 19.0366L39.6742 19.3778ZM41.2771 19.3812L41.1167 19.7047C41.4208 19.8555 41.6426 20.1275 41.8244 20.4873C42.0091 20.8529 42.1308 21.2618 42.2657 21.6684L42.6084 21.5547L42.9512 21.441C42.8271 21.067 42.6846 20.5882 42.469 20.1616C42.2506 19.7293 41.9362 19.3049 41.4375 19.0576L41.2771 19.3812ZM42.6084 21.5547L42.8024 21.8593C43.0219 21.7195 43.2903 21.6045 43.5735 21.4718L43.4203 21.1448L43.267 20.8178C43.0186 20.9342 42.6853 21.0776 42.4145 21.2501L42.6084 21.5547ZM43.4203 21.1448L43.5734 21.4718C43.8761 21.3301 44.0776 21.3443 44.2134 21.3892C44.3617 21.4383 44.4824 21.5407 44.5902 21.6574L44.8555 21.4125L45.1208 21.1675C44.9815 21.0166 44.7601 20.8094 44.4403 20.7036C44.1079 20.5936 43.7154 20.6078 43.2671 20.8178L43.4203 21.1448ZM44.8555 21.4125L44.5902 21.6574C45.0092 22.1114 45.2202 22.5355 45.2629 22.9472C45.3053 23.3557 45.1876 23.8059 44.8438 24.3253L45.145 24.5247L45.4461 24.724C45.8551 24.106 46.0454 23.4906 45.9813 22.8726C45.9174 22.2577 45.6072 21.6944 45.1208 21.1675L44.8555 21.4125ZM45.145 24.5247L44.8437 24.3255C44.3607 25.0563 43.5873 25.5911 42.6875 25.992C41.7894 26.3921 40.7945 26.646 39.9023 26.8323L39.976 27.1858L40.0498 27.5392C40.9592 27.3495 42.0132 27.0831 42.9814 26.6517C43.9479 26.2211 44.8582 25.6134 45.4462 24.7238L45.145 24.5247ZM39.976 27.1858L39.6396 27.0547C39.5287 27.3392 39.4451 27.6279 39.3642 27.8927C39.2816 28.1632 39.1999 28.4162 39.0886 28.6623L39.4176 28.8111L39.7467 28.9599C39.8785 28.6683 39.9714 28.3771 40.0549 28.1036C40.1402 27.8244 40.2142 27.5693 40.3125 27.3168L39.976 27.1858ZM39.4176 28.8111L39.0887 28.662C38.2523 30.5072 37.3391 32.2495 36.3179 33.9966L36.6296 34.1789L36.9414 34.3611C37.9738 32.5948 38.8988 30.8304 39.7465 28.9602L39.4176 28.8111ZM36.6296 34.1789L36.8116 34.4908C37.9416 33.8316 39.2829 33.4971 40.5121 33.7616L40.5881 33.4085L40.664 33.0555C39.2114 32.743 37.6859 33.1446 36.4477 33.867L36.6296 34.1789ZM40.5881 33.4085L40.5121 33.7615C40.6411 33.7893 40.7917 33.8173 40.9449 33.846C41.1002 33.8751 41.2612 33.9054 41.4192 33.9391C41.7458 34.0085 42.0203 34.0844 42.1867 34.1702L42.3522 33.8492L42.5177 33.5283C42.2561 33.3933 41.8948 33.3018 41.5695 33.2326C41.4016 33.1969 41.2326 33.1651 41.0779 33.1361C40.9209 33.1067 40.7814 33.0807 40.6641 33.0555L40.5881 33.4085ZM42.3522 33.8492L42.0288 34.01C42.0613 34.0753 42.0613 34.1281 42.0372 34.1924C42.0079 34.2703 41.9402 34.3669 41.8245 34.4773C41.5912 34.7002 41.2614 34.89 41.0133 35.0343L41.1949 35.3465L41.3764 35.6586C41.6051 35.5256 42.0161 35.293 42.3233 34.9996C42.478 34.8519 42.6304 34.667 42.7133 34.4463C42.8012 34.2121 42.8053 33.9494 42.6756 33.6885L42.3522 33.8492ZM41.1949 35.3465L41.0133 35.0343C40.1483 35.5375 39.4835 35.7781 38.8179 35.8392C38.1479 35.9008 37.4426 35.7841 36.4865 35.5122L36.3878 35.8596L36.289 36.2069C37.2745 36.4871 38.0815 36.6322 38.884 36.5584C39.691 36.4843 40.4589 36.1923 41.3764 35.6586L41.1949 35.3465ZM36.3878 35.8596L36.4797 35.5104C36.4252 35.496 36.2464 35.4497 36.0698 35.4147C35.9829 35.3975 35.8862 35.3809 35.8013 35.3736C35.76 35.3701 35.7088 35.3676 35.6574 35.3718C35.6315 35.374 35.5959 35.3786 35.5568 35.39C35.5212 35.4005 35.4565 35.424 35.3957 35.4799L35.64 35.7459L35.8842 36.0118C35.8319 36.0599 35.7797 36.0773 35.7599 36.0831C35.7367 36.0899 35.7205 36.0913 35.7171 36.0916C35.7105 36.0921 35.716 36.0912 35.7398 36.0932C35.7849 36.0971 35.8511 36.1076 35.9294 36.1231C36.0833 36.1536 36.2445 36.1953 36.2958 36.2088L36.3878 35.8596ZM35.64 35.7459L35.3974 35.4784C34.9929 35.8452 34.6234 36.2973 34.2746 36.6959C33.9152 37.1066 33.5682 37.473 33.1763 37.7354L33.3772 38.0355L33.5781 38.3355C34.0553 38.016 34.4555 37.586 34.8181 37.1716C35.1913 36.7451 35.5187 36.3434 35.8826 36.0133L35.64 35.7459ZM33.3772 38.0355L33.1763 37.7354C32.1368 38.4313 31.0274 38.845 29.957 38.8731C28.8956 38.9009 27.8513 38.5509 26.9175 37.6799L26.6712 37.944L26.4249 38.208C27.4978 39.2088 28.7262 39.6278 29.9759 39.595C31.2168 39.5625 32.457 39.0861 33.5781 38.3355L33.3772 38.0355ZM26.6712 37.944L26.9175 37.6799C25.1714 36.0511 24.8671 34.135 24.7402 31.7822L24.3796 31.8016L24.019 31.8211C24.1476 34.205 24.4599 36.3751 26.4249 38.208L26.6712 37.944ZM24.3796 31.8016L24.1163 31.5545C22.8681 32.8846 22.1697 33.5456 20.5671 34.4384L20.7428 34.7539L20.9186 35.0693C22.6113 34.1264 23.3679 33.4074 24.6429 32.0488L24.3796 31.8016ZM20.7428 34.7539L20.5708 34.4364C18.0135 35.8224 14.4659 36.3138 11.6923 35.4537L11.5854 35.7986L11.4784 36.1435C14.46 37.0681 18.2082 36.5384 20.9149 35.0713L20.7428 34.7539ZM11.5854 35.7986L11.6923 35.4537C9.81401 34.871 8.33952 33.8498 7.4885 32.5144C6.6434 31.1882 6.38866 29.5151 7.01182 27.5624L6.6678 27.4526L6.32379 27.3428C5.64183 29.4797 5.90828 31.3786 6.87944 32.9025C7.84468 34.4172 9.48153 35.5241 11.4784 36.1435L11.5854 35.7986ZM6.6678 27.4526L7.01202 27.5618C7.55879 25.8379 8.78089 24.4088 10.3993 23.6021L10.2382 23.2789L10.0771 22.9557C8.28357 23.8497 6.92942 25.4333 6.32359 27.3434L6.6678 27.4526ZM10.2382 23.2789L10.4023 23.6005C12.4908 22.5349 15.5954 22.4209 18.4844 23.1475C21.3775 23.8752 23.9374 25.4152 25.0158 27.5304L25.3375 27.3664L25.6592 27.2024C24.4451 24.8209 21.6477 23.1984 18.6605 22.4471C15.6691 21.6948 12.3704 21.7855 10.0741 22.9572L10.2382 23.2789ZM25.3375 27.3664L25.6609 27.5272C26.2776 26.2865 26.9742 24.6062 27.4472 22.8892C27.9173 21.1826 28.1798 19.393 27.884 17.9561L27.5303 18.0289L27.1766 18.1017C27.4374 19.3683 27.212 21.0233 26.7509 22.6974C26.2925 24.3613 25.6145 25.998 25.0141 27.2057L25.3375 27.3664ZM27.5303 18.0289L27.884 17.956C27.257 14.9119 24.5289 13.4827 21.5999 13.1348C18.6691 12.7866 15.3833 13.4918 13.3905 14.8705L13.596 15.1675L13.8014 15.4645C15.6217 14.2051 18.7222 13.5203 21.5147 13.852C24.3092 14.1839 26.6417 15.5045 27.1766 18.1017L27.5303 18.0289ZM13.596 15.1675L13.3905 14.8705C13.1876 15.0109 12.6049 15.4501 12.0669 15.843C11.7931 16.0429 11.5277 16.2333 11.317 16.3762C11.2113 16.4478 11.1233 16.5049 11.057 16.5444C11.0237 16.5643 10.9998 16.5774 10.9843 16.5851C10.9617 16.5963 10.9743 16.5873 11.0064 16.5805L11.081 16.9338L11.1557 17.2871C11.2178 17.274 11.2734 17.2478 11.3049 17.2322C11.3436 17.213 11.3851 17.1897 11.4269 17.1648C11.5108 17.1147 11.6121 17.0487 11.7224 16.9739C11.9438 16.8237 12.2176 16.6272 12.4928 16.4263C13.0528 16.0174 13.6072 15.5989 13.8014 15.4645L13.596 15.1675ZM11.081 16.9338L11.3144 16.6583C11.2396 16.5949 11.1862 16.5537 11.1524 16.5271C11.1126 16.4958 11.1203 16.4995 11.1307 16.5118C11.1473 16.5316 11.1513 16.5466 11.1409 16.5219C11.1276 16.4904 11.1135 16.4513 11.0791 16.3629L10.7425 16.4935L10.4058 16.6241C10.4325 16.6929 10.4568 16.7585 10.4754 16.8025C10.4969 16.8535 10.5262 16.9151 10.5778 16.9765C10.623 17.0304 10.6753 17.0706 10.7058 17.0946C10.7422 17.1233 10.7847 17.1561 10.8477 17.2094L11.081 16.9338ZM10.7425 16.4935L11.092 16.5843C11.0911 16.5879 11.0956 16.5709 11.1207 16.5299C11.1442 16.4915 11.1782 16.4441 11.2235 16.3884C11.314 16.2767 11.4352 16.1492 11.5698 16.0189C11.839 15.7584 12.1385 15.5097 12.2957 15.3903L12.0774 15.1027L11.859 14.8151C11.6799 14.9511 11.3584 15.2185 11.0676 15.4999C10.9222 15.6406 10.7785 15.7905 10.6626 15.9333C10.5569 16.0636 10.4374 16.2315 10.393 16.4027L10.7425 16.4935ZM12.0774 15.1027L12.2957 15.3902C15.2219 13.1681 18.2429 12.6231 21.7958 12.9902L21.8329 12.631L21.8701 12.2718C18.1807 11.8906 14.9641 12.457 11.859 14.8151L12.0774 15.1027ZM19.9282 24.1967L20.0498 23.8567C18.688 23.3698 17.8612 22.9854 16.273 22.8662L16.2459 23.2263L16.2189 23.5864C17.6876 23.6966 18.4089 24.037 19.8066 24.5368L19.9282 24.1967ZM16.2459 23.2263L16.2712 22.8661C14.0612 22.7111 11.8192 22.9998 10.07 23.9999C8.29972 25.0121 7.06645 26.7365 6.87777 29.3587L7.23795 29.3846L7.59813 29.4105C7.76978 27.0249 8.87008 25.518 10.4285 24.6269C12.008 23.7238 14.0898 23.4371 16.2207 23.5865L16.2459 23.2263ZM7.23795 29.3846L6.87777 29.3587C6.71218 31.6603 7.9499 33.3607 9.66867 34.4087C11.3771 35.4504 13.5911 35.8726 15.5004 35.6426L15.4572 35.2841L15.4141 34.9256C13.6546 35.1375 11.6054 34.7437 10.0447 33.7921C8.49422 32.8467 7.45669 31.3764 7.59813 29.4105L7.23795 29.3846ZM15.4572 35.2841L15.4761 35.6447C17.2751 35.5509 19.0798 35.0124 20.6219 34.2039C22.1608 33.3971 23.4631 32.3081 24.2331 31.0928C25.0077 29.8703 25.2564 28.4911 24.6082 27.1757C23.9703 25.8814 22.5037 24.7344 20.0498 23.8567L19.9282 24.1967L19.8066 24.5367C22.1818 25.3863 23.4421 26.4434 23.9603 27.495C24.4682 28.5256 24.3023 29.6341 23.623 30.7062C22.9392 31.7855 21.7484 32.7979 20.2865 33.5643C18.8278 34.3291 17.124 34.8356 15.4384 34.9235L15.4572 35.2841ZM40.8513 34.3067L41.1005 34.0454C40.9295 33.8823 40.7382 33.8084 40.5587 33.7688C40.4006 33.7339 40.2045 33.7188 40.0717 33.7017L40.0255 34.0598L39.9793 34.4179C40.1774 34.4435 40.2854 34.4481 40.403 34.474C40.4994 34.4953 40.5555 34.5236 40.602 34.568L40.8513 34.3067ZM40.0255 34.0598L39.9948 33.7C38.8263 33.7998 37.6341 34.0684 36.6413 34.8543L36.8654 35.1375L37.0896 35.4206C37.9201 34.7631 38.9457 34.5144 40.0562 34.4196L40.0255 34.0598ZM36.8654 35.1375L36.8016 35.4929L37.7907 35.6705L37.8545 35.3151L37.9184 34.9597L36.9293 34.782L36.8654 35.1375ZM37.8545 35.3151L37.8351 35.6757C38.2205 35.6965 38.9835 35.6456 39.6667 35.4837C40.0079 35.4028 40.3544 35.2886 40.6296 35.1263C40.8958 34.9692 41.1723 34.7195 41.2106 34.3432L40.8513 34.3067L40.492 34.2702C40.4886 34.3036 40.4571 34.3895 40.2626 34.5042C40.0772 34.6136 39.8105 34.7074 39.5002 34.7809C38.8804 34.9278 38.1866 34.9714 37.874 34.9545L37.8545 35.3151ZM33.3268 27.8447L32.979 27.7474C32.8267 28.2915 32.7431 28.7587 32.7365 29.2376C32.7299 29.7164 32.8004 30.1901 32.9386 30.7469L33.2891 30.66L33.6396 30.573C33.5107 30.0538 33.4531 29.6449 33.4586 29.2476C33.4641 28.8505 33.5329 28.4481 33.6745 27.9421L33.3268 27.8447ZM33.2891 30.66L32.9387 30.747C33.0461 31.1797 33.3159 31.9328 33.6427 32.6312C33.8068 32.9819 33.9895 33.328 34.1787 33.6184C34.3612 33.8984 34.5748 34.1665 34.8115 34.3177L35.0059 34.0135L35.2004 33.7092C35.0997 33.6448 34.9551 33.487 34.7838 33.2241C34.6193 32.9716 34.4526 32.6579 34.2968 32.3251C33.9841 31.6567 33.7329 30.9486 33.6396 30.573L33.2891 30.66ZM35.0059 34.0135L35.3544 34.1081C35.584 33.2625 35.5238 31.8697 35.2319 30.5994C35.0843 29.9573 34.8731 29.3258 34.5956 28.792C34.3211 28.2639 33.9644 27.7976 33.5082 27.5325L33.3268 27.8447L33.1453 28.1569C33.4331 28.3242 33.7101 28.6542 33.9548 29.125C34.1965 29.5901 34.3899 30.1602 34.528 30.7612C34.8074 31.977 34.8428 33.2362 34.6574 33.9188L35.0059 34.0135ZM41.2397 20.5054L41.5035 20.2588C41.3234 20.0662 40.9462 19.8191 40.5313 19.7387C40.3167 19.6972 40.0695 19.696 39.8283 19.7927C39.5811 19.8918 39.3738 20.0804 39.2249 20.3584L39.5432 20.5289L39.8615 20.6994C39.9397 20.5535 40.0249 20.492 40.0971 20.463C40.1753 20.4317 40.2743 20.4246 40.394 20.4478C40.6478 20.4969 40.8917 20.6619 40.9759 20.752L41.2397 20.5054ZM39.5432 20.5289L39.2005 20.415C38.4258 22.7463 38.6307 24.6421 39.6899 26.3965L39.999 26.2099L40.3082 26.0233C39.3705 24.4702 39.1699 22.7974 39.8859 20.6428L39.5432 20.5289ZM39.999 26.2099L40.0292 26.5698C40.785 26.5063 42.0304 26.2418 43.086 25.7474C43.614 25.5001 44.1168 25.1851 44.4855 24.79C44.8588 24.3901 45.107 23.893 45.0776 23.3046L44.717 23.3227L44.3563 23.3407C44.3735 23.6848 44.2352 23.9998 43.9576 24.2972C43.6754 24.5995 43.2628 24.8671 42.7797 25.0933C41.813 25.5461 40.6529 25.7926 39.9688 25.8501L39.999 26.2099ZM44.717 23.3227L45.076 23.2843C44.9976 22.5503 44.7704 22.029 44.3222 21.8067C43.8883 21.5915 43.4066 21.7414 43.0468 21.9083C42.6719 22.0822 42.2883 22.3444 42.0111 22.5192C41.8631 22.6126 41.7507 22.6781 41.6675 22.7144C41.6482 22.7228 41.6333 22.7284 41.6223 22.7319C41.6111 22.7355 41.6067 22.7361 41.6079 22.7359C41.6089 22.7358 41.6201 22.7341 41.6385 22.7359C41.6577 22.7378 41.686 22.7438 41.7175 22.7599L41.5529 23.0813L41.3883 23.4027C41.5101 23.4651 41.6323 23.4629 41.7177 23.4497C41.8043 23.4364 41.8863 23.4069 41.9562 23.3764C42.0952 23.3158 42.2493 23.2229 42.3964 23.1301C42.7096 22.9325 43.0311 22.7117 43.3506 22.5635C43.6853 22.4083 43.8874 22.3972 44.0013 22.4537C44.101 22.5031 44.2858 22.6862 44.3579 23.361L44.717 23.3227ZM41.5529 23.0813L41.7179 22.7601C41.7622 22.7828 41.7741 22.8172 41.7717 22.8102C41.7666 22.7958 41.7579 22.7552 41.7576 22.6728C41.7568 22.5028 41.7883 22.2878 41.8213 22.0046C41.8522 21.74 41.8819 21.4298 41.8553 21.1342C41.8287 20.8378 41.7421 20.5143 41.5037 20.259L41.2397 20.5054L40.9758 20.7518C41.0611 20.8433 41.1168 20.9849 41.136 21.1988C41.1553 21.4134 41.1346 21.6584 41.104 21.9209C41.0755 22.1647 41.0344 22.4486 41.0353 22.6758C41.0358 22.792 41.0465 22.9247 41.09 23.049C41.1362 23.1807 41.2259 23.3193 41.3878 23.4025L41.5529 23.0813Z" fill="var(--stroke-0, #8A7050)" mask="url(#path-2-outside-1_1227_674)"/>
</g>
</g>
</svg>
