<svg width="35" height="35" viewBox="0 0 35 35" fill="none" xmlns="http://www.w3.org/2000/svg">
<path d="M0 17.3799C0 7.78125 7.78125 0 17.3799 0V0C26.9785 0 34.7598 7.78125 34.7598 17.3799V17.3799C34.7598 26.9785 26.9785 34.7598 17.3799 34.7598V34.7598C7.78125 34.7598 0 26.9785 0 17.3799V17.3799Z" fill="#4F4D4A"/>
<path d="M26.6216 13.0723C29.1395 13.0723 30.8306 15.0597 30.8306 17.3564V17.3799C30.8306 19.6768 29.1158 21.6885 26.5981 21.6885C24.0805 21.6883 22.3903 19.7012 22.3901 17.4043V17.3799C22.3904 15.0832 24.1043 13.0724 26.6216 13.0723ZM7.71533 16.6475L10.272 13.2471H11.3706L8.28857 17.2969L11.4897 21.5117H10.3677L7.69189 17.9463L5.01611 21.5117H3.9292L7.13037 17.2969L4.04834 13.2471H5.15967L7.71533 16.6475ZM16.9214 13.0713C18.4164 13.0713 19.4966 14.0695 19.4966 15.4248V15.4482C19.4966 16.6609 18.8555 17.4107 17.396 18.6826L15.1772 20.6553H19.5796V21.5117H13.7769V20.7861L16.7905 18.124C18.0601 16.9827 18.5229 16.34 18.5229 15.5078C18.5228 14.5331 17.7518 13.915 16.8501 13.915C15.9008 13.9151 15.2841 14.4144 14.6196 15.3418L13.9312 14.8428C14.6787 13.7253 15.4619 13.0713 16.9214 13.0713ZM26.5981 13.9404C24.7069 13.9406 23.3599 15.4643 23.3599 17.3564V17.3799C23.3599 19.2719 24.7306 20.8192 26.6216 20.8193C28.5129 20.8193 29.8607 19.2965 29.8608 17.4043V17.3799C29.8606 15.4876 28.4892 13.9404 26.5981 13.9404ZM26.6089 16.5879C26.9974 16.5879 27.312 16.9428 27.312 17.3799C27.3119 17.8166 26.9974 18.1709 26.6089 18.1709C26.2205 18.1708 25.9058 17.8165 25.9058 17.3799C25.9058 16.9429 26.2204 16.588 26.6089 16.5879Z" fill="white"/>
</svg>
