<svg width="36" height="36" viewBox="0 0 36 36" fill="none" xmlns="http://www.w3.org/2000/svg">
<path d="M0 18C0 8.05887 8.05887 0 18 0V0C27.9411 0 36 8.05887 36 18V18C36 27.9411 27.9411 36 18 36V36C8.05887 36 0 27.9411 0 18V18Z" fill="#242323"/>
<path d="M27.5728 13.5386C30.1804 13.5386 31.9311 15.5975 31.9312 17.9761V18.0005C31.9312 20.3794 30.1558 22.4624 27.5483 22.4624C24.9406 22.4624 23.1899 20.404 23.1899 18.0249V18.0005C23.1901 15.6217 24.9654 13.5386 27.5728 13.5386ZM7.99072 17.2417L10.6382 13.7202H11.7759L8.58447 17.9136L11.8999 22.2798H10.7368L7.96533 18.5864L5.19482 22.2798H4.06885L7.38428 17.9136L4.19287 13.7202H5.34326L7.99072 17.2417ZM17.5239 13.5376C19.0721 13.5376 20.1907 14.5716 20.1909 15.9751V16.0005C20.1908 17.2562 19.5266 18.0319 18.0151 19.3491L15.7173 21.3931H20.2769V22.2798H14.2671V21.5288L17.3882 18.771C18.703 17.589 19.183 16.9238 19.1831 16.062C19.1831 15.0524 18.3837 14.4116 17.4497 14.4116C16.4668 14.4117 15.8281 14.929 15.1401 15.8892L14.4272 15.3726C15.2015 14.2152 16.0123 13.5376 17.5239 13.5376ZM27.5483 14.439C25.5895 14.439 24.1939 16.0163 24.1938 17.9761V18.0005C24.1938 19.9601 25.6141 21.563 27.5728 21.563C29.5316 21.5629 30.9272 19.9848 30.9272 18.0249V18.0005C30.9271 16.0406 29.5068 14.439 27.5483 14.439ZM27.5591 17.1812C27.9614 17.1813 28.2876 17.5479 28.2876 18.0005C28.2876 18.4528 27.9614 18.8197 27.5591 18.8198C27.1567 18.8198 26.8306 18.4529 26.8306 18.0005C26.8306 17.5478 27.1567 17.1812 27.5591 17.1812Z" fill="white"/>
</svg>
