<svg preserveAspectRatio="none" width="100%" height="100%" overflow="visible" style="display: block;" viewBox="0 0 114 18" fill="none" xmlns="http://www.w3.org/2000/svg">
<g id="Frame 2147238408">
<path id="Union" d="M41.9941 18H0V0H41.9941V18ZM50.8105 3.18945C52.3267 3.18949 53.4973 3.48876 54.29 4.0791C55.1301 4.71342 55.4749 5.41438 55.6094 6.75879L55.6367 7.02637H53.4893L53.4736 6.80078C53.4315 6.22578 53.2906 5.93313 52.916 5.6416C52.4206 5.24818 51.7266 5.05762 50.7939 5.05762C49.2399 5.05772 48.1954 5.6299 48.1953 6.48145C48.1953 6.82329 48.3911 7.12132 48.7314 7.29785C49.0606 7.48377 49.3362 7.57353 50.3291 7.75L52.5039 8.13184C53.719 8.35125 54.3438 8.57016 54.8916 8.96875C55.5803 9.4633 55.9756 10.2766 55.9756 11.1982C55.9754 12.3831 55.3308 13.4594 54.25 14.0771C53.3751 14.589 52.407 14.8076 51.0166 14.8076C48.9065 14.8076 47.4171 14.3027 46.5898 13.3066C46.0278 12.6256 45.8213 11.9759 45.7715 10.7314L45.7617 10.4775H47.9531L47.957 10.7168C47.9718 11.4521 48.1127 11.8342 48.4951 12.1758C49.0327 12.6842 49.9009 12.9394 51.0801 12.9395C52.7516 12.9395 53.79 12.3326 53.79 11.3564C53.79 10.8882 53.5816 10.4183 52.0703 10.1514L50.0557 9.81836C48.9413 9.60943 48.116 9.38409 47.5977 9.14844C46.6705 8.71119 46.0732 7.71461 46.0732 6.6084C46.0734 4.49923 47.8888 3.18945 50.8105 3.18945ZM71.7666 10.499C71.7666 12.0498 72.8821 12.9395 74.8262 12.9395C76.7702 12.9394 77.8857 12.0498 77.8857 10.499V3.45898H80.0078V10.5625C80.0078 12.0071 79.5167 13.038 78.4629 13.8076C77.5511 14.4711 76.3276 14.8076 74.8262 14.8076C73.1932 14.8076 71.8902 14.4088 70.9541 13.623C70.0605 12.8641 69.6445 11.8919 69.6445 10.5625V3.45898H71.7666V10.499ZM107.338 3.18945C111.122 3.18945 113.567 5.49787 113.567 9.07031C113.567 10.6279 112.946 12.1592 111.905 13.167C110.799 14.2398 109.225 14.8075 107.354 14.8076C103.647 14.8076 101.156 12.4696 101.156 8.99023C101.156 5.52047 103.641 3.1896 107.338 3.18945ZM32.6484 3.6748C29.4671 3.6748 27.3009 6.21652 27.3008 9.11914V9.14941C27.3009 12.0521 29.4368 14.5633 32.6182 14.5635C35.7996 14.5635 37.9658 12.0217 37.9658 9.11914V9.08887C37.9657 6.18666 35.83 3.67491 32.6484 3.6748ZM67.6152 5.4209H63.5342V14.5361H61.4121V5.4209H57.3633V3.45703H67.6152V5.4209ZM88.0498 3.45703C89.7855 3.45707 90.8153 3.68647 91.7227 4.27441C93.0527 5.15015 93.7549 6.79092 93.7549 9.02051C93.7549 11.0346 93.1863 12.5392 92.0654 13.4932C91.1247 14.2826 90.1451 14.5361 88.0332 14.5361H83.0742V3.45703H88.0498ZM98.5176 14.5361H96.3945V3.45703H98.5176V14.5361ZM8.01758 9.01367L3.97266 14.3408H5.34668L8.72754 9.83496L12.1084 14.3408H13.5273L9.48242 9.01367L13.376 3.89648H11.9873L8.75781 8.19336L5.52734 3.89648H4.12402L8.01758 9.01367ZM20.3877 3.6748C18.5434 3.6748 17.554 4.50095 16.6094 5.91309L17.4785 6.54395C18.3181 5.372 19.0982 4.74121 20.2979 4.74121C21.4372 4.7413 22.412 5.52221 22.4121 6.75391C22.4121 7.80557 21.827 8.61726 20.2227 10.0596L16.4141 13.4248V14.3408H23.7461V13.2588H18.1836L20.9873 10.7656C22.8316 9.1583 23.6416 8.21115 23.6416 6.67871V6.64844C23.6414 4.93595 22.2768 3.67483 20.3877 3.6748ZM32.6182 4.77246C35.0079 4.77246 36.7411 6.72768 36.7412 9.11914V9.14941C36.7411 11.5406 35.0383 13.4657 32.6484 13.4658C30.2587 13.4658 28.5254 11.5102 28.5254 9.11914V9.08887C28.5255 6.69791 30.2284 4.77269 32.6182 4.77246ZM107.354 5.05762C104.879 5.05762 103.278 6.60118 103.278 8.99023C103.278 11.3889 104.879 12.9395 107.354 12.9395C109.801 12.9393 111.445 11.3773 111.445 9.05371C111.445 6.58894 109.878 5.05779 107.354 5.05762ZM85.1963 12.5723H88.1768C89.4754 12.5722 90.1189 12.4099 90.6348 11.9512C91.2969 11.3628 91.6327 10.366 91.6328 8.98926C91.6328 7.62273 91.297 6.63048 90.6348 6.04199C90.1189 5.58334 89.4754 5.42093 88.1768 5.4209H85.1963V12.5723ZM32.6348 8.11914C32.1439 8.1192 31.7462 8.56696 31.7461 9.11914C31.7461 9.67106 32.1438 10.1191 32.6348 10.1191C33.1257 10.1191 33.5234 9.6711 33.5234 9.11914C33.5233 8.56692 33.1257 8.11914 32.6348 8.11914Z" fill="var(--fill-0, #4F4D4A)"/>
</g>
</svg>
