<svg preserveAspectRatio="none" width="100%" height="100%" overflow="visible" style="display: block;" viewBox="0 0 488.685 415.379" fill="none" xmlns="http://www.w3.org/2000/svg">
<g id="Frame 7">
<g id="Vector 34">
</g>
<path id="Vector 28" d="M0.725673 229.416L254.044 224.572M432.275 221.164L366.264 222.426M0.725673 335.859L14.203 324.032L476.007 314.405M0.725673 345.486L483.709 335.859M0.725673 370.24L488.66 358.963M488.66 382.067L314.28 385.921M68.1123 0.0262222L71.9877 162.579M78.014 415.348L75.273 300.378M16.6784 415.348L15.9942 391.144M265.596 20.3797L5.67653 26.1557L6.97887 72.2261M8.28121 118.297L197.385 115.821M8.28121 118.297L6.97887 72.2261M8.28121 118.297L8.90323 140.3M131.098 0.0262222L139.074 415.348M162.178 0.0262222L164.688 135.35M169.88 415.348L165.08 156.528M187.758 0.0262222V45.6841L196.211 65.4875M197.385 68.238L223.502 140.3M197.385 68.238L197.624 81.9903M197.385 68.238L196.211 65.4875M203.436 415.348L199.71 201.636M254.044 224.572L258.445 415.348M254.044 224.572L223.502 140.3M254.044 224.572L330.507 223.11M223.502 140.3L230.39 415.348M6.97887 72.2261H68.1123M8.90323 140.3L9.53302 162.579M8.90323 140.3H40.3325M89.566 140.3H40.3325M9.53302 162.579H71.9877M9.53302 162.579L10.1317 183.758M71.9877 162.579L72.4598 182.383M10.1317 183.758L72.4598 182.383M10.1317 183.758L10.7459 205.487M72.4598 182.383L72.9779 204.111M10.7459 205.487L72.9779 204.111M10.7459 205.487L12.2077 257.195M72.9779 204.111L75.273 300.378M13.4595 301.478L75.273 300.378M13.4595 301.478L15.9942 391.144M13.4595 301.478L12.8064 278.374M15.9942 391.144H78.014L314.28 385.921M78.014 300.378L464.73 292.402M12.8064 278.374L12.2077 257.195M12.8064 278.374L415.772 270.828M453.454 270.123L415.772 270.828M12.2077 257.195L310.979 250.523M443.277 247.569L310.979 250.523M105.794 189.534L199.461 187.333M199.461 187.333L199.312 178.807M199.461 187.333L199.71 201.636M165.08 156.528L395.144 152.677M165.08 156.528L164.688 135.35M164.688 135.35L330.507 131.193M384.142 129.849L365.163 130.324M198.147 111.97L370.664 107.295M198.147 111.97L197.73 88.0414M198.147 111.97L199.312 178.807M105.794 45.6841L269.172 42.1085M105.794 81.9903H197.624M197.624 81.9903L197.73 88.0414M281.824 88.0414H197.73M196.211 65.4875H274.398M310.979 250.523L314.28 385.921M415.772 270.828L417.972 415.348M330.507 131.193V223.11M330.507 131.193L365.163 130.324M330.507 223.11L366.264 222.426M365.163 130.324L366.264 222.426M199.312 178.807L405.87 174.681M199.71 201.636L417.972 197.785M40.3325 140.3L46.1085 415.348" stroke="var(--stroke-0, #D9E0E7)" stroke-width="2.20038"/>
</g>
</svg>
