<svg preserveAspectRatio="none" width="100%" height="100%" overflow="visible" style="display: block;" viewBox="0 0 272.297 400.194" fill="none" xmlns="http://www.w3.org/2000/svg">
<g id="yellow">
<path d="M15.9527 389.192V400.194H128.172V384.241H117.445V374.064L128.172 372.689V365.538H91.8658V369.939L88.2902 372.689V384.241H73.1626V362.512H77.2883V346.285H71.5123V341.884H46.758H18.7032V362.512L0 365.538V387.542L15.9527 389.192Z" fill="var(--fill-0, #F9F0DE)"/>
<path d="M191.983 384.241H161.178H155.952V347.385H126.522V334.733H107.543V308.878H119.095V297.326H114.97V289.35H119.095V283.574H137.249V295.401H143.3V292.1H154.577V295.951H164.478L165.028 302.277H170.254V295.951H167.229V276.148H164.478V272.297H154.577V267.346H145.5V251.943H137.524V260.195H120.746V270.372H109.744L109.469 274.497H104.518V270.647H98.742V259.37H89.1153V178.781H104.518L105.343 185.382H110.019V170.804H128.172V185.382H130.647V179.331H191.433V206.836H196.384V221.413H210.411V228.564H218.388V259.37H197.759V282.749L244.517 281.648V300.902H262.395V280.273H272.297V312.179H262.395V318.505H251.943V346.285H229.114V338.858H223.888V358.387H204.91V369.939H191.983V384.241Z" fill="var(--fill-0, #F9F0DE)"/>
<path d="M216.737 160.903H188.957V153.201H175.48V140.549L125.422 141.924V130.097H110.019V117.72H103.418V96.5416H94.6163V83.6144H84.1645V55.2845H76.4631V39.3318H52.8091V28.88H46.483V0H99.8422V36.0312H108.369V58.8601H119.095V83.6144H159.527V88.2902L177.681 87.465V108.644H196.384V128.722H216.737V160.903Z" fill="var(--fill-0, #F9F0DE)"/>
</g>
</svg>
