<svg preserveAspectRatio="none" width="100%" height="100%" overflow="visible" style="display: block;" viewBox="0 0 56 61" fill="none" xmlns="http://www.w3.org/2000/svg">
<g id="Vector" filter="url(#filter0_d_1227_650)">
<path d="M32.8995 32.3346L23 42L13.1005 32.3346C7.63317 26.9964 7.63317 18.3417 13.1005 13.0036C18.5678 7.66547 27.4321 7.66547 32.8995 13.0036C38.3668 18.3417 38.3668 26.9964 32.8995 32.3346ZM23 25.7066C24.7182 25.7066 26.1111 24.3467 26.1111 22.6691C26.1111 20.9915 24.7182 19.6315 23 19.6315C21.2817 19.6315 19.8889 20.9915 19.8889 22.6691C19.8889 24.3467 21.2817 25.7066 23 25.7066Z" fill="var(--fill-0, #FB6D5A)"/>
<path d="M13.4502 13.3613C18.7232 8.21316 27.2766 8.21316 32.5498 13.3613C37.8162 18.5032 37.8162 26.8345 32.5498 31.9766L23 41.3008L13.4502 31.9766C8.18379 26.8345 8.1838 18.5032 13.4502 13.3613ZM23 19.1318C21.017 19.1318 19.3887 20.7041 19.3887 22.6689C19.3887 24.6339 21.0169 26.207 23 26.207C24.9831 26.207 26.6113 24.6339 26.6113 22.6689C26.6113 20.7041 24.983 19.1318 23 19.1318Z" stroke="var(--stroke-0, white)"/>
</g>
<defs>
<filter id="filter0_d_1227_650" x="0" y="2.98023e-08" width="56" height="61" filterUnits="userSpaceOnUse" color-interpolation-filters="sRGB">
<feFlood flood-opacity="0" result="BackgroundImageFix"/>
<feColorMatrix in="SourceAlpha" type="matrix" values="0 0 0 0 0 0 0 0 0 0 0 0 0 0 0 0 0 0 127 0" result="hardAlpha"/>
<feOffset dx="5" dy="5"/>
<feGaussianBlur stdDeviation="7"/>
<feComposite in2="hardAlpha" operator="out"/>
<feColorMatrix type="matrix" values="0 0 0 0 0 0 0 0 0 0 0 0 0 0 0 0 0 0 0.2 0"/>
<feBlend mode="normal" in2="BackgroundImageFix" result="effect1_dropShadow_1227_650"/>
<feBlend mode="normal" in="SourceGraphic" in2="effect1_dropShadow_1227_650" result="shape"/>
</filter>
</defs>
</svg>
