<svg preserveAspectRatio="none" width="100%" height="100%" overflow="visible" style="display: block;" viewBox="0 0 399.704 417.531" fill="none" xmlns="http://www.w3.org/2000/svg">
<path id="Vector 30" d="M40.2177 232.14L24.2649 209.036L20.4142 93.5161L27.5655 69.587L13.5381 41.2571V0M11.8878 269.821L62.7715 268.721M62.7715 268.721V234.615M62.7715 268.721L64.2952 360.312M65.247 417.522L64.2952 360.312M13.5381 292.1H42.9681M0.0607478 361.962L14.9133 360.312H64.2952M149.962 191.433V228.289M182.142 204.635H199.195M165.914 178.506H182.142M106.504 132.848H117.506L118.331 191.433M117.506 118.82V47.0331M145.561 2.75047L147.486 108.644H163.989M173.341 25.8544V47.0331M178.016 47.0331V69.587H196.169M199.195 24.7543V33.5558M199.195 47.0331V33.5558M199.195 33.5558H252.004V23.379M217.348 124.871L267.957 123.496M217.348 89.3904V76.7382H258.33V67.9367M110.355 357.837H137.034M110.355 380.666H137.034M109.255 402.669H137.859M169.765 402.669H202.221M169.765 379.84L202.771 379.29M184.067 323.731V344.359M137.034 335.008L167.29 333.907M104.029 334.733L86.7006 335.283L87.8008 370.214M312.79 333.632L338.369 332.807M282.534 309.153L311.689 308.328M299.037 297.876L298.212 263.22H309.489M399.154 226.639V272.297M382.652 340.509V363.613M106.504 156.502L133.184 156.227M133.734 141.099H163.989M133.734 168.879H164.539M69.6477 53.9093H88.0759L91.3765 47.0331H99.6279M116.406 233.24V255.794M123.832 232.14V255.794V302.002" stroke="var(--stroke-0, #D9E0E7)" stroke-width="1.10019"/>
</svg>
