<svg preserveAspectRatio="none" width="100%" height="100%" overflow="visible" style="display: block;" viewBox="0 0 428.799 275.322" fill="none" xmlns="http://www.w3.org/2000/svg">
<g id="green">
<path d="M396.893 81.689L334.458 82.5142L335.008 59.6853H386.992L396.893 81.689Z" fill="var(--fill-0, #B4E7C7)"/>
<path d="M299.251 83.3393L284.399 83.8894L284.949 68.7618L280.823 64.6361V60.7855H299.251V83.3393Z" fill="var(--fill-0, #B4E7C7)"/>
<path d="M246.167 83.8894L250.018 61.6106L238.466 61.8856V83.8894H246.167Z" fill="var(--fill-0, #B4E7C7)"/>
<path d="M204.91 38.5066L197.484 17.328H193.358L194.183 38.2316L204.91 38.5066Z" fill="var(--fill-0, #B4E7C7)"/>
<path d="M132.848 0H103.418L104.243 26.9546H133.673L132.848 0Z" fill="var(--fill-0, #B4E7C7)"/>
<path d="M0.275047 64.9112L0 45.3828V45.1078L9.62666 44.8327L10.1768 64.6361L0.275047 64.9112Z" fill="var(--fill-0, #B4E7C7)"/>
<path d="M399.644 241.767V225.539H418.072V230.49L428.799 232.415V241.216L399.644 241.767Z" fill="var(--fill-0, #B4E7C7)"/>
<path d="M345.734 275.322V246.992H337.208L333.907 275.322H345.734Z" fill="var(--fill-0, #B4E7C7)"/>
<path d="M52.259 117.17L44.0076 117.445L44.2826 125.697L52.259 125.422V117.17Z" fill="var(--fill-0, #B4E7C7)"/>
</g>
</svg>
