<svg preserveAspectRatio="none" width="100%" height="100%" overflow="visible" style="display: block;" viewBox="0 0 20.1472 20.1472" fill="none" xmlns="http://www.w3.org/2000/svg">
<g id="Heart Icon">
<path id="Vector" d="M17.4912 3.8726C17.0625 3.44364 16.5534 3.10336 15.9931 2.87119C15.4328 2.63903 14.8322 2.51953 14.2257 2.51953C13.6192 2.51953 13.0187 2.63903 12.4584 2.87119C11.898 3.10336 11.389 3.44364 10.9602 3.8726L10.0704 4.76244L9.18054 3.8726C8.31447 3.00653 7.13983 2.51998 5.91502 2.51998C4.69021 2.51998 3.51557 3.00653 2.6495 3.8726C1.78343 4.73867 1.29688 5.91332 1.29688 7.13812C1.29687 8.36293 1.78343 9.53757 2.6495 10.4036L3.53933 11.2935L10.0704 17.8245L16.6014 11.2935L17.4912 10.4036C17.9202 9.97488 18.2605 9.46581 18.4927 8.9055C18.7248 8.34519 18.8443 7.74463 18.8443 7.13812C18.8443 6.53162 18.7248 5.93106 18.4927 5.37075C18.2605 4.81044 17.9202 4.30137 17.4912 3.8726Z" fill="#ff83af" stroke="#ff83af" stroke-width="1.67893" stroke-linecap="round" stroke-linejoin="round"/>
</g>
</svg>
