<svg preserveAspectRatio="none" width="100%" height="100%" overflow="visible" style="display: block;" viewBox="0 0 20.4503 20.4503" fill="none" xmlns="http://www.w3.org/2000/svg">
<g id="Frame">
<path id="Union" d="M17.9051 0.918848C18.1289 0.840877 18.3699 0.826275 18.6014 0.877832C18.8377 0.930515 19.0543 1.04947 19.2254 1.22061C19.3537 1.34886 19.4528 1.50245 19.5165 1.6708L19.5682 1.84463L19.5956 2.02334C19.6091 2.19782 19.585 2.37353 19.5272 2.53994L19.5282 2.54092L13.9891 18.7313C13.9045 18.978 13.7463 19.1933 13.536 19.3476C13.3258 19.5017 13.073 19.588 12.8124 19.5946C12.5519 19.6012 12.2957 19.5278 12.078 19.3847C11.9147 19.2772 11.7782 19.1345 11.6795 18.9677L11.5936 18.7929L8.88365 12.0341V12.0331C8.8407 11.9272 8.77706 11.8307 8.69615 11.7499C8.61483 11.6688 8.51762 11.6051 8.41099 11.5624L8.41002 11.5614L1.65318 8.85244C1.41121 8.75531 1.20467 8.58591 1.06138 8.36807C0.918148 8.15022 0.844748 7.89335 0.851424 7.63271C0.858205 7.37229 0.94442 7.12013 1.09849 6.91006L1.22545 6.7626C1.36253 6.62547 1.5297 6.5204 1.71471 6.45693L17.9051 0.917871V0.918848ZM10.3993 11.2548L10.4657 11.3983V11.3993L12.7479 17.0927L17.0038 4.65127L10.3993 11.2548ZM3.3524 7.69717L9.04478 9.98037H9.04381C9.0951 10.0009 9.14445 10.026 9.1942 10.0497L15.8104 3.43447L3.3524 7.69717Z" fill="var(--fill-0, #4F4D4A)"/>
</g>
</svg>
